%TF.GenerationSoftware,KiCad,Pcbnew,8.0.4*%
%TF.CreationDate,2024-08-29T11:58:41-05:00*%
%TF.ProjectId,thermometer,74686572-6d6f-46d6-9574-65722e6b6963,rev?*%
%TF.SameCoordinates,Original*%
%TF.FileFunction,Copper,L1,Top*%
%TF.FilePolarity,Positive*%
%FSLAX46Y46*%
G04 Gerber Fmt 4.6, Leading zero omitted, Abs format (unit mm)*
G04 Created by KiCad (PCBNEW 8.0.4) date 2024-08-29 11:58:41*
%MOMM*%
%LPD*%
G01*
G04 APERTURE LIST*
%TA.AperFunction,ComponentPad*%
%ADD10R,1.498600X1.498600*%
%TD*%
%TA.AperFunction,ComponentPad*%
%ADD11C,1.498600*%
%TD*%
%TA.AperFunction,ComponentPad*%
%ADD12C,1.500000*%
%TD*%
%TA.AperFunction,ComponentPad*%
%ADD13C,1.320800*%
%TD*%
%TA.AperFunction,ComponentPad*%
%ADD14R,1.200000X1.200000*%
%TD*%
%TA.AperFunction,ComponentPad*%
%ADD15C,1.200000*%
%TD*%
%TA.AperFunction,ComponentPad*%
%ADD16R,1.600000X1.600000*%
%TD*%
%TA.AperFunction,ComponentPad*%
%ADD17C,1.600000*%
%TD*%
%TA.AperFunction,ComponentPad*%
%ADD18R,1.500000X1.000000*%
%TD*%
%TA.AperFunction,ComponentPad*%
%ADD19O,1.500000X1.000000*%
%TD*%
%TA.AperFunction,ComponentPad*%
%ADD20C,2.006600*%
%TD*%
%TA.AperFunction,ComponentPad*%
%ADD21C,1.272000*%
%TD*%
%TA.AperFunction,ComponentPad*%
%ADD22O,1.600000X1.600000*%
%TD*%
%TA.AperFunction,Conductor*%
%ADD23C,0.762000*%
%TD*%
%TA.AperFunction,Conductor*%
%ADD24C,0.200000*%
%TD*%
G04 APERTURE END LIST*
D10*
%TO.P,CR1,1,VOUT*%
%TO.N,VCC*%
X155219400Y-84429600D03*
D11*
%TO.P,CR1,2,GND*%
%TO.N,GND*%
X152679400Y-84429600D03*
%TO.P,CR1,3,VIN*%
%TO.N,Net-(CR1-VIN)*%
X150139400Y-84429600D03*
%TD*%
D12*
%TO.P,Y1,1,1*%
%TO.N,Net-(U4-PB7)*%
X181102000Y-98098000D03*
%TO.P,Y1,2,2*%
%TO.N,Net-(U4-PB6)*%
X181102000Y-93218000D03*
%TD*%
D13*
%TO.P,J1,1,1*%
%TO.N,Net-(J1-Pad1)*%
X140419200Y-92470600D03*
%TO.P,J1,2,2*%
%TO.N,GND*%
X142419201Y-92470600D03*
%TD*%
D14*
%TO.P,C4,1*%
%TO.N,Net-(CR1-VIN)*%
X145320000Y-80010000D03*
D15*
%TO.P,C4,2*%
%TO.N,GND*%
X147320000Y-80010000D03*
%TD*%
D16*
%TO.P,U4,1,PC6*%
%TO.N,Net-(U4-PC6)*%
X168402000Y-79756000D03*
D17*
%TO.P,U4,2,PD0*%
%TO.N,unconnected-(U4-PD0-Pad2)*%
X168402000Y-82296000D03*
%TO.P,U4,3,PD1*%
%TO.N,unconnected-(U4-PD1-Pad3)*%
X168402000Y-84836000D03*
%TO.P,U4,4,PD2*%
%TO.N,Net-(U1-G)*%
X168402000Y-87376000D03*
%TO.P,U4,5,PD3*%
%TO.N,Net-(U1-F)*%
X168402000Y-89916000D03*
%TO.P,U4,6,PD4*%
%TO.N,Net-(U4-PD4)*%
X168402000Y-92456000D03*
%TO.P,U4,7,VCC*%
%TO.N,VCC*%
X168402000Y-94996000D03*
%TO.P,U4,8,GND*%
%TO.N,GND*%
X168402000Y-97536000D03*
%TO.P,U4,9,PB6*%
%TO.N,Net-(U4-PB6)*%
X168402000Y-100076000D03*
%TO.P,U4,10,PB7*%
%TO.N,Net-(U4-PB7)*%
X168402000Y-102616000D03*
%TO.P,U4,11,PD5*%
%TO.N,Net-(U1-A)*%
X168402000Y-105156000D03*
%TO.P,U4,12,PD6*%
%TO.N,Net-(U1-B)*%
X168402000Y-107696000D03*
%TO.P,U4,13,PD7*%
%TO.N,Net-(U4-PD7)*%
X168402000Y-110236000D03*
%TO.P,U4,14,PB0*%
%TO.N,Net-(U1-C)*%
X168402000Y-112776000D03*
%TO.P,U4,15,PB1*%
%TO.N,Net-(U1-D)*%
X176022000Y-112776000D03*
%TO.P,U4,16,PB2*%
%TO.N,Net-(U1-E)*%
X176022000Y-110236000D03*
%TO.P,U4,17,PB3*%
%TO.N,unconnected-(U4-PB3-Pad17)*%
X176022000Y-107696000D03*
%TO.P,U4,18,PB4*%
%TO.N,unconnected-(U4-PB4-Pad18)*%
X176022000Y-105156000D03*
%TO.P,U4,19,PB5*%
%TO.N,unconnected-(U4-PB5-Pad19)*%
X176022000Y-102616000D03*
%TO.P,U4,20,AVCC*%
%TO.N,VCC*%
X176022000Y-100076000D03*
%TO.P,U4,21,AREF*%
%TO.N,unconnected-(U4-AREF-Pad21)*%
X176022000Y-97536000D03*
%TO.P,U4,22,GND*%
%TO.N,GND*%
X176022000Y-94996000D03*
%TO.P,U4,23,PC0*%
%TO.N,Net-(U3-VOUT)*%
X176022000Y-92456000D03*
%TO.P,U4,24,PC1*%
%TO.N,unconnected-(U4-PC1-Pad24)*%
X176022000Y-89916000D03*
%TO.P,U4,25,PC2*%
%TO.N,unconnected-(U4-PC2-Pad25)*%
X176022000Y-87376000D03*
%TO.P,U4,26,PC3*%
%TO.N,unconnected-(U4-PC3-Pad26)*%
X176022000Y-84836000D03*
%TO.P,U4,27,PC4*%
%TO.N,unconnected-(U4-PC4-Pad27)*%
X176022000Y-82296000D03*
%TO.P,U4,28,PC5*%
%TO.N,unconnected-(U4-PC5-Pad28)*%
X176022000Y-79756000D03*
%TD*%
D18*
%TO.P,U3,1,VDD*%
%TO.N,VCC*%
X180848000Y-84074000D03*
D19*
%TO.P,U3,2,VOUT*%
%TO.N,Net-(U3-VOUT)*%
X180848000Y-85344000D03*
%TO.P,U3,3,GND*%
%TO.N,GND*%
X180848000Y-86614000D03*
%TD*%
D14*
%TO.P,C5,1*%
%TO.N,VCC*%
X158242000Y-80010000D03*
D15*
%TO.P,C5,2*%
%TO.N,GND*%
X160242000Y-80010000D03*
%TD*%
D13*
%TO.P,SW1,1,1*%
%TO.N,unconnected-(SW1-Pad1)*%
X140289550Y-81281900D03*
%TO.P,SW1,2,2*%
%TO.N,Net-(J1-Pad1)*%
X140289550Y-83281900D03*
%TO.P,SW1,3,3*%
%TO.N,Net-(CR1-VIN)*%
X140289550Y-85281901D03*
D20*
%TO.P,SW1,4*%
%TO.N,N/C*%
X140289550Y-79181901D03*
%TO.P,SW1,5*%
X140289550Y-87381899D03*
%TD*%
D21*
%TO.P,U1,1,E*%
%TO.N,Net-(U1-E)*%
X148062000Y-90056000D03*
%TO.P,U1,2,D*%
%TO.N,Net-(U1-D)*%
X148062000Y-92596000D03*
%TO.P,U1,3,CC*%
%TO.N,unconnected-(U1-CC-Pad3)*%
X148062000Y-95136000D03*
%TO.P,U1,4,C*%
%TO.N,Net-(U1-C)*%
X148062000Y-97676000D03*
%TO.P,U1,5,DP*%
%TO.N,unconnected-(U1-DP-Pad5)*%
X148062000Y-100216000D03*
%TO.P,U1,6,B*%
%TO.N,Net-(U1-B)*%
X163302000Y-100216000D03*
%TO.P,U1,7,A*%
%TO.N,Net-(U1-A)*%
X163302000Y-97676000D03*
%TO.P,U1,8,CC*%
%TO.N,Net-(U4-PD4)*%
X163302000Y-95136000D03*
%TO.P,U1,9,F*%
%TO.N,Net-(U1-F)*%
X163302000Y-92596000D03*
%TO.P,U1,10,G*%
%TO.N,Net-(U1-G)*%
X163302000Y-90056000D03*
%TD*%
D17*
%TO.P,R1,1*%
%TO.N,VCC*%
X163702000Y-85616000D03*
D22*
%TO.P,R1,2*%
%TO.N,Net-(U4-PC6)*%
X163702000Y-77996000D03*
%TD*%
D17*
%TO.P,C2,1*%
%TO.N,GND*%
X181102000Y-106640000D03*
%TO.P,C2,2*%
%TO.N,Net-(U4-PB7)*%
X181102000Y-104140000D03*
%TD*%
%TO.P,C1,1*%
%TO.N,GND*%
X181102000Y-112756000D03*
%TO.P,C1,2*%
%TO.N,Net-(U4-PB6)*%
X181102000Y-110256000D03*
%TD*%
D14*
%TO.P,C3,1*%
%TO.N,VCC*%
X181102000Y-80010000D03*
D15*
%TO.P,C3,2*%
%TO.N,GND*%
X181102000Y-78010000D03*
%TD*%
D21*
%TO.P,U2,1,E*%
%TO.N,Net-(U1-E)*%
X148062000Y-102900000D03*
%TO.P,U2,2,D*%
%TO.N,Net-(U1-D)*%
X148062000Y-105440000D03*
%TO.P,U2,3,CC*%
%TO.N,unconnected-(U2-CC-Pad3)*%
X148062000Y-107980000D03*
%TO.P,U2,4,C*%
%TO.N,Net-(U1-C)*%
X148062000Y-110520000D03*
%TO.P,U2,5,DP*%
%TO.N,unconnected-(U2-DP-Pad5)*%
X148062000Y-113060000D03*
%TO.P,U2,6,B*%
%TO.N,Net-(U1-B)*%
X163302000Y-113060000D03*
%TO.P,U2,7,A*%
%TO.N,Net-(U1-A)*%
X163302000Y-110520000D03*
%TO.P,U2,8,CC*%
%TO.N,Net-(U4-PD7)*%
X163302000Y-107980000D03*
%TO.P,U2,9,F*%
%TO.N,Net-(U1-F)*%
X163302000Y-105440000D03*
%TO.P,U2,10,G*%
%TO.N,Net-(U1-G)*%
X163302000Y-102900000D03*
%TD*%
D23*
%TO.N,VCC*%
X158242000Y-80156000D02*
X163702000Y-85616000D01*
X158242000Y-80010000D02*
X158242000Y-80156000D01*
X155219400Y-83032600D02*
X158242000Y-80010000D01*
X155219400Y-84429600D02*
X155219400Y-83032600D01*
%TO.N,Net-(CR1-VIN)*%
X149739600Y-84429600D02*
X150139400Y-84429600D01*
X145320000Y-80010000D02*
X149739600Y-84429600D01*
D24*
%TO.N,Net-(U4-PB6)*%
X182202000Y-109156000D02*
X182202000Y-94318000D01*
X177442000Y-106596000D02*
X181102000Y-110256000D01*
X174922000Y-106596000D02*
X177442000Y-106596000D01*
X168402000Y-100076000D02*
X174922000Y-106596000D01*
X181102000Y-110256000D02*
X182202000Y-109156000D01*
X182202000Y-94318000D02*
X181102000Y-93218000D01*
%TO.N,Net-(U4-PB7)*%
X181102000Y-98098000D02*
X181102000Y-104140000D01*
D23*
%TO.N,Net-(CR1-VIN)*%
X140289550Y-85040450D02*
X145320000Y-80010000D01*
X140289550Y-85281901D02*
X140289550Y-85040450D01*
%TO.N,Net-(J1-Pad1)*%
X138705250Y-90756650D02*
X138705250Y-84866200D01*
X138705250Y-84866200D02*
X140289550Y-83281900D01*
X140419200Y-92470600D02*
X138705250Y-90756650D01*
D24*
%TO.N,Net-(U4-PC6)*%
X168402000Y-79756000D02*
X165462000Y-79756000D01*
X165462000Y-79756000D02*
X163702000Y-77996000D01*
%TO.N,Net-(U1-B)*%
X162366000Y-107496000D02*
X162366000Y-112124000D01*
X162366000Y-112124000D02*
X163302000Y-113060000D01*
X164702000Y-105394000D02*
X163052000Y-107044000D01*
X162818000Y-107044000D02*
X162366000Y-107496000D01*
X163302000Y-100216000D02*
X164702000Y-101616000D01*
X164702000Y-101616000D02*
X164702000Y-105394000D01*
X163052000Y-107044000D02*
X162818000Y-107044000D01*
%TO.N,Net-(U1-G)*%
X163302000Y-90056000D02*
X165722000Y-90056000D01*
X160802000Y-92556000D02*
X160802000Y-100400000D01*
X160802000Y-100400000D02*
X163302000Y-102900000D01*
X165722000Y-90056000D02*
X168402000Y-87376000D01*
X163302000Y-90056000D02*
X160802000Y-92556000D01*
%TO.N,Net-(U1-C)*%
X148998000Y-98612000D02*
X148998000Y-109584000D01*
X148998000Y-109584000D02*
X148062000Y-110520000D01*
X148062000Y-97676000D02*
X148998000Y-98612000D01*
%TO.N,Net-(U1-E)*%
X148062000Y-90056000D02*
X148998000Y-90992000D01*
X148998000Y-90992000D02*
X148998000Y-92983704D01*
X147126000Y-94486000D02*
X147126000Y-101964000D01*
X148062000Y-93550000D02*
X147126000Y-94486000D01*
X148431704Y-93550000D02*
X148062000Y-93550000D01*
X147126000Y-101964000D02*
X148062000Y-102900000D01*
X148998000Y-92983704D02*
X148431704Y-93550000D01*
%TO.N,Net-(U1-F)*%
X164302000Y-102576296D02*
X164302000Y-104440000D01*
X168402000Y-89916000D02*
X165722000Y-92596000D01*
X162366000Y-93532000D02*
X162366000Y-100640296D01*
X163302000Y-92596000D02*
X162366000Y-93532000D01*
X165722000Y-92596000D02*
X163302000Y-92596000D01*
X162366000Y-100640296D02*
X164302000Y-102576296D01*
X164302000Y-104440000D02*
X163302000Y-105440000D01*
%TO.N,Net-(U1-D)*%
X146726000Y-104104000D02*
X148062000Y-105440000D01*
X148062000Y-92596000D02*
X146726000Y-93932000D01*
X146726000Y-93932000D02*
X146726000Y-104104000D01*
%TO.N,Net-(U1-A)*%
X165102000Y-108516000D02*
X165102000Y-99476000D01*
X165102000Y-99476000D02*
X163302000Y-97676000D01*
X168402000Y-105156000D02*
X165102000Y-108456000D01*
X165102000Y-108456000D02*
X165102000Y-108516000D01*
X163302000Y-110520000D02*
X165102000Y-108720000D01*
X165102000Y-108720000D02*
X165102000Y-108516000D01*
%TO.N,Net-(U4-PD4)*%
X168402000Y-92456000D02*
X165722000Y-95136000D01*
X165722000Y-95136000D02*
X163302000Y-95136000D01*
%TO.N,Net-(U3-VOUT)*%
X179798000Y-88680000D02*
X179798000Y-86178000D01*
X179798000Y-86178000D02*
X180632000Y-85344000D01*
X180632000Y-85344000D02*
X180848000Y-85344000D01*
X176022000Y-92456000D02*
X179798000Y-88680000D01*
%TD*%
%TA.AperFunction,Conductor*%
%TO.N,GND*%
G36*
X167023586Y-94786161D02*
G01*
X167079519Y-94828033D01*
X167103936Y-94893497D01*
X167103780Y-94913150D01*
X167096532Y-94995997D01*
X167096532Y-94996001D01*
X167116364Y-95222686D01*
X167116366Y-95222697D01*
X167175258Y-95442488D01*
X167175261Y-95442496D01*
X167256410Y-95616520D01*
X167271431Y-95648731D01*
X167271432Y-95648734D01*
X167401954Y-95835141D01*
X167562858Y-95996045D01*
X167562861Y-95996047D01*
X167749266Y-96126568D01*
X167807865Y-96153893D01*
X167860305Y-96200065D01*
X167879457Y-96267258D01*
X167859242Y-96334139D01*
X167807867Y-96378657D01*
X167749513Y-96405868D01*
X167749512Y-96405868D01*
X167676526Y-96456973D01*
X167676526Y-96456974D01*
X168272590Y-97053037D01*
X168209007Y-97070075D01*
X168094993Y-97135901D01*
X168001901Y-97228993D01*
X167936075Y-97343007D01*
X167919037Y-97406589D01*
X167322974Y-96810526D01*
X167322973Y-96810526D01*
X167271868Y-96883512D01*
X167271866Y-96883516D01*
X167175734Y-97089673D01*
X167175730Y-97089682D01*
X167116860Y-97309389D01*
X167116858Y-97309400D01*
X167097034Y-97535997D01*
X167097034Y-97536002D01*
X167116858Y-97762599D01*
X167116860Y-97762610D01*
X167175730Y-97982317D01*
X167175735Y-97982331D01*
X167271863Y-98188478D01*
X167322974Y-98261472D01*
X167919037Y-97665409D01*
X167936075Y-97728993D01*
X168001901Y-97843007D01*
X168094993Y-97936099D01*
X168209007Y-98001925D01*
X168272590Y-98018962D01*
X167676526Y-98615025D01*
X167749513Y-98666132D01*
X167749521Y-98666136D01*
X167807864Y-98693342D01*
X167860304Y-98739514D01*
X167879456Y-98806707D01*
X167859241Y-98873589D01*
X167807866Y-98918105D01*
X167749272Y-98945428D01*
X167749265Y-98945432D01*
X167562858Y-99075954D01*
X167401954Y-99236858D01*
X167271432Y-99423265D01*
X167271431Y-99423267D01*
X167175261Y-99629502D01*
X167175258Y-99629511D01*
X167116366Y-99849302D01*
X167116364Y-99849313D01*
X167096532Y-100075998D01*
X167096532Y-100076001D01*
X167116364Y-100302686D01*
X167116366Y-100302697D01*
X167175258Y-100522488D01*
X167175261Y-100522497D01*
X167271431Y-100728732D01*
X167271432Y-100728734D01*
X167401954Y-100915141D01*
X167562858Y-101076045D01*
X167562861Y-101076047D01*
X167749266Y-101206568D01*
X167807275Y-101233618D01*
X167859714Y-101279791D01*
X167878866Y-101346984D01*
X167858650Y-101413865D01*
X167807275Y-101458382D01*
X167749267Y-101485431D01*
X167749265Y-101485432D01*
X167562858Y-101615954D01*
X167401954Y-101776858D01*
X167271432Y-101963265D01*
X167271431Y-101963267D01*
X167175261Y-102169502D01*
X167175258Y-102169511D01*
X167116366Y-102389302D01*
X167116364Y-102389313D01*
X167096532Y-102615998D01*
X167096532Y-102616001D01*
X167116364Y-102842686D01*
X167116366Y-102842697D01*
X167175258Y-103062488D01*
X167175261Y-103062497D01*
X167271431Y-103268732D01*
X167271432Y-103268734D01*
X167401954Y-103455141D01*
X167562858Y-103616045D01*
X167562861Y-103616047D01*
X167749266Y-103746568D01*
X167807275Y-103773618D01*
X167859714Y-103819791D01*
X167878866Y-103886984D01*
X167858650Y-103953865D01*
X167807275Y-103998382D01*
X167749267Y-104025431D01*
X167749265Y-104025432D01*
X167562858Y-104155954D01*
X167401954Y-104316858D01*
X167271432Y-104503265D01*
X167271431Y-104503267D01*
X167175261Y-104709502D01*
X167175258Y-104709511D01*
X167116366Y-104929302D01*
X167116364Y-104929313D01*
X167096532Y-105155998D01*
X167096532Y-105156001D01*
X167116364Y-105382686D01*
X167116366Y-105382697D01*
X167142152Y-105478931D01*
X167140489Y-105548781D01*
X167110058Y-105598705D01*
X165914181Y-106794583D01*
X165852858Y-106828068D01*
X165783166Y-106823084D01*
X165727233Y-106781212D01*
X165702816Y-106715748D01*
X165702500Y-106706902D01*
X165702500Y-99396945D01*
X165702500Y-99396943D01*
X165661577Y-99244216D01*
X165634754Y-99197757D01*
X165582524Y-99107290D01*
X165582521Y-99107286D01*
X165582520Y-99107284D01*
X165470716Y-98995480D01*
X165470715Y-98995479D01*
X165466385Y-98991149D01*
X165466374Y-98991139D01*
X164459755Y-97984520D01*
X164426270Y-97923197D01*
X164423965Y-97885397D01*
X164424464Y-97880020D01*
X164443369Y-97676000D01*
X164442690Y-97668677D01*
X164423935Y-97466274D01*
X164423934Y-97466272D01*
X164388862Y-97343007D01*
X164366295Y-97263690D01*
X164279649Y-97089682D01*
X164272414Y-97075152D01*
X164272409Y-97075144D01*
X164223893Y-97010898D01*
X164145482Y-96907065D01*
X164145479Y-96907062D01*
X164145476Y-96907059D01*
X163989829Y-96765169D01*
X163989828Y-96765168D01*
X163810752Y-96654288D01*
X163810751Y-96654287D01*
X163637499Y-96587170D01*
X163614350Y-96578202D01*
X163407312Y-96539500D01*
X163196688Y-96539500D01*
X163113283Y-96555090D01*
X163043770Y-96548060D01*
X162989091Y-96504562D01*
X162966609Y-96438408D01*
X162966500Y-96433202D01*
X162966500Y-96378797D01*
X162986185Y-96311758D01*
X163038989Y-96266003D01*
X163108147Y-96256059D01*
X163113262Y-96256905D01*
X163196688Y-96272500D01*
X163196689Y-96272500D01*
X163407310Y-96272500D01*
X163407312Y-96272500D01*
X163614350Y-96233798D01*
X163810752Y-96157712D01*
X163989828Y-96046832D01*
X164145482Y-95904935D01*
X164235469Y-95785772D01*
X164291577Y-95744137D01*
X164334422Y-95736500D01*
X165635331Y-95736500D01*
X165635347Y-95736501D01*
X165642943Y-95736501D01*
X165801054Y-95736501D01*
X165801057Y-95736501D01*
X165953785Y-95695577D01*
X166034919Y-95648734D01*
X166090716Y-95616520D01*
X166202520Y-95504716D01*
X166202520Y-95504714D01*
X166212724Y-95494511D01*
X166212728Y-95494506D01*
X166892573Y-94814660D01*
X166953894Y-94781177D01*
X167023586Y-94786161D01*
G37*
%TD.AperFunction*%
%TA.AperFunction,Conductor*%
G36*
X180692225Y-86380866D02*
G01*
X180614866Y-86458225D01*
X180598000Y-86498943D01*
X180598000Y-86488000D01*
X180617685Y-86420961D01*
X180670489Y-86375206D01*
X180722000Y-86364000D01*
X180732943Y-86364000D01*
X180692225Y-86380866D01*
G37*
%TD.AperFunction*%
%TA.AperFunction,Conductor*%
G36*
X185724539Y-76178185D02*
G01*
X185770294Y-76230989D01*
X185781500Y-76282500D01*
X185781500Y-115017500D01*
X185761815Y-115084539D01*
X185709011Y-115130294D01*
X185657500Y-115141500D01*
X136922500Y-115141500D01*
X136855461Y-115121815D01*
X136809706Y-115069011D01*
X136798500Y-115017500D01*
X136798500Y-113059999D01*
X146920631Y-113059999D01*
X146920631Y-113060000D01*
X146940064Y-113269725D01*
X146940065Y-113269727D01*
X146997703Y-113472305D01*
X146997704Y-113472307D01*
X146997705Y-113472310D01*
X147028829Y-113534815D01*
X147091585Y-113660847D01*
X147091590Y-113660855D01*
X147218520Y-113828937D01*
X147218523Y-113828940D01*
X147329699Y-113930290D01*
X147374172Y-113970832D01*
X147553248Y-114081712D01*
X147749650Y-114157798D01*
X147956688Y-114196500D01*
X147956690Y-114196500D01*
X148167310Y-114196500D01*
X148167312Y-114196500D01*
X148374350Y-114157798D01*
X148570752Y-114081712D01*
X148749828Y-113970832D01*
X148905482Y-113828935D01*
X149032411Y-113660853D01*
X149126295Y-113472310D01*
X149183935Y-113269726D01*
X149203369Y-113060000D01*
X149183935Y-112850274D01*
X149126295Y-112647690D01*
X149049126Y-112492715D01*
X149032414Y-112459152D01*
X149032409Y-112459144D01*
X148980559Y-112390484D01*
X148905482Y-112291065D01*
X148905479Y-112291062D01*
X148905476Y-112291059D01*
X148749829Y-112149169D01*
X148749828Y-112149168D01*
X148570752Y-112038288D01*
X148570751Y-112038287D01*
X148427144Y-111982654D01*
X148374350Y-111962202D01*
X148167312Y-111923500D01*
X147956688Y-111923500D01*
X147749650Y-111962202D01*
X147749647Y-111962202D01*
X147749647Y-111962203D01*
X147553248Y-112038287D01*
X147553247Y-112038288D01*
X147374170Y-112149169D01*
X147218523Y-112291059D01*
X147218520Y-112291062D01*
X147091590Y-112459144D01*
X147091585Y-112459152D01*
X146997706Y-112647688D01*
X146997703Y-112647694D01*
X146940065Y-112850272D01*
X146940064Y-112850274D01*
X146920631Y-113059999D01*
X136798500Y-113059999D01*
X136798500Y-104183054D01*
X146125498Y-104183054D01*
X146125499Y-104183057D01*
X146166423Y-104335785D01*
X146187207Y-104371784D01*
X146245477Y-104472712D01*
X146245481Y-104472717D01*
X146364349Y-104591585D01*
X146364355Y-104591590D01*
X146904244Y-105131479D01*
X146937729Y-105192802D01*
X146940034Y-105230601D01*
X146920631Y-105439999D01*
X146920631Y-105440000D01*
X146940064Y-105649725D01*
X146940065Y-105649727D01*
X146997703Y-105852305D01*
X146997704Y-105852307D01*
X146997705Y-105852310D01*
X147028685Y-105914526D01*
X147091585Y-106040847D01*
X147091590Y-106040855D01*
X147218520Y-106208937D01*
X147218523Y-106208940D01*
X147303680Y-106286570D01*
X147374172Y-106350832D01*
X147553248Y-106461712D01*
X147749650Y-106537798D01*
X147956688Y-106576500D01*
X147956690Y-106576500D01*
X148167311Y-106576500D01*
X148167312Y-106576500D01*
X148250715Y-106560909D01*
X148320229Y-106567939D01*
X148374908Y-106611436D01*
X148397391Y-106677589D01*
X148397500Y-106682797D01*
X148397500Y-106737202D01*
X148377815Y-106804241D01*
X148325011Y-106849996D01*
X148255853Y-106859940D01*
X148250729Y-106859093D01*
X148167312Y-106843500D01*
X147956688Y-106843500D01*
X147749650Y-106882202D01*
X147749647Y-106882202D01*
X147749647Y-106882203D01*
X147553248Y-106958287D01*
X147553247Y-106958288D01*
X147374170Y-107069169D01*
X147218523Y-107211059D01*
X147218520Y-107211062D01*
X147091590Y-107379144D01*
X147091585Y-107379152D01*
X146997706Y-107567688D01*
X146997703Y-107567694D01*
X146940065Y-107770272D01*
X146940064Y-107770274D01*
X146920631Y-107979999D01*
X146920631Y-107980000D01*
X146940064Y-108189725D01*
X146940065Y-108189727D01*
X146997703Y-108392305D01*
X146997704Y-108392307D01*
X146997705Y-108392310D01*
X147028829Y-108454815D01*
X147091585Y-108580847D01*
X147091590Y-108580855D01*
X147218520Y-108748937D01*
X147218523Y-108748940D01*
X147303680Y-108826570D01*
X147374172Y-108890832D01*
X147553248Y-109001712D01*
X147749650Y-109077798D01*
X147956688Y-109116500D01*
X147956690Y-109116500D01*
X148167311Y-109116500D01*
X148167312Y-109116500D01*
X148250715Y-109100909D01*
X148320229Y-109107939D01*
X148374908Y-109151436D01*
X148397391Y-109217589D01*
X148397500Y-109222797D01*
X148397500Y-109277201D01*
X148377815Y-109344240D01*
X148325011Y-109389995D01*
X148255853Y-109399939D01*
X148250716Y-109399090D01*
X148181449Y-109386142D01*
X148167312Y-109383500D01*
X147956688Y-109383500D01*
X147749650Y-109422202D01*
X147749647Y-109422202D01*
X147749647Y-109422203D01*
X147553248Y-109498287D01*
X147553247Y-109498288D01*
X147374170Y-109609169D01*
X147218523Y-109751059D01*
X147218520Y-109751062D01*
X147091590Y-109919144D01*
X147091585Y-109919152D01*
X146997706Y-110107688D01*
X146997703Y-110107694D01*
X146940065Y-110310272D01*
X146940064Y-110310274D01*
X146920631Y-110519999D01*
X146920631Y-110520000D01*
X146940064Y-110729725D01*
X146940065Y-110729727D01*
X146997703Y-110932305D01*
X146997704Y-110932307D01*
X146997705Y-110932310D01*
X147028829Y-110994815D01*
X147091585Y-111120847D01*
X147091590Y-111120855D01*
X147156365Y-111206631D01*
X147193682Y-111256047D01*
X147218520Y-111288937D01*
X147218523Y-111288940D01*
X147303680Y-111366570D01*
X147374172Y-111430832D01*
X147553248Y-111541712D01*
X147749650Y-111617798D01*
X147956688Y-111656500D01*
X147956690Y-111656500D01*
X148167310Y-111656500D01*
X148167312Y-111656500D01*
X148374350Y-111617798D01*
X148570752Y-111541712D01*
X148749828Y-111430832D01*
X148905482Y-111288935D01*
X149032411Y-111120853D01*
X149126295Y-110932310D01*
X149183935Y-110729726D01*
X149203369Y-110520000D01*
X149183965Y-110310599D01*
X149197380Y-110242031D01*
X149219752Y-110211481D01*
X149356506Y-110074728D01*
X149356511Y-110074724D01*
X149366714Y-110064520D01*
X149366716Y-110064520D01*
X149478520Y-109952716D01*
X149537543Y-109850484D01*
X149557577Y-109815785D01*
X149598501Y-109663057D01*
X149598501Y-109504943D01*
X149598501Y-109497348D01*
X149598500Y-109497330D01*
X149598500Y-100479054D01*
X160201498Y-100479054D01*
X160242423Y-100631785D01*
X160271358Y-100681900D01*
X160271359Y-100681904D01*
X160271360Y-100681904D01*
X160321479Y-100768714D01*
X160321481Y-100768717D01*
X160440349Y-100887585D01*
X160440355Y-100887590D01*
X162144244Y-102591479D01*
X162177729Y-102652802D01*
X162180034Y-102690601D01*
X162160631Y-102899999D01*
X162160631Y-102900000D01*
X162180064Y-103109725D01*
X162180065Y-103109727D01*
X162237703Y-103312305D01*
X162237704Y-103312307D01*
X162237705Y-103312310D01*
X162268829Y-103374815D01*
X162331585Y-103500847D01*
X162331590Y-103500855D01*
X162458520Y-103668937D01*
X162458523Y-103668940D01*
X162543680Y-103746570D01*
X162614172Y-103810832D01*
X162793248Y-103921712D01*
X162989650Y-103997798D01*
X163196688Y-104036500D01*
X163196690Y-104036500D01*
X163407310Y-104036500D01*
X163407312Y-104036500D01*
X163554717Y-104008945D01*
X163624230Y-104015976D01*
X163678909Y-104059474D01*
X163701391Y-104125627D01*
X163701500Y-104130834D01*
X163701500Y-104139900D01*
X163681815Y-104206939D01*
X163665180Y-104227582D01*
X163606823Y-104285938D01*
X163545500Y-104319422D01*
X163496359Y-104320145D01*
X163458744Y-104313114D01*
X163407312Y-104303500D01*
X163196688Y-104303500D01*
X162989650Y-104342202D01*
X162989647Y-104342202D01*
X162989647Y-104342203D01*
X162793248Y-104418287D01*
X162793247Y-104418288D01*
X162614170Y-104529169D01*
X162458523Y-104671059D01*
X162458520Y-104671062D01*
X162331590Y-104839144D01*
X162331585Y-104839152D01*
X162237706Y-105027688D01*
X162237703Y-105027694D01*
X162180065Y-105230272D01*
X162180064Y-105230274D01*
X162160631Y-105439999D01*
X162160631Y-105440000D01*
X162180064Y-105649725D01*
X162180065Y-105649727D01*
X162237703Y-105852305D01*
X162237704Y-105852307D01*
X162237705Y-105852310D01*
X162268685Y-105914526D01*
X162331585Y-106040847D01*
X162331590Y-106040855D01*
X162458520Y-106208937D01*
X162458524Y-106208941D01*
X162567737Y-106308502D01*
X162604019Y-106368213D01*
X162602258Y-106438061D01*
X162563015Y-106495868D01*
X162546199Y-106507526D01*
X162449287Y-106563477D01*
X162449282Y-106563481D01*
X161990217Y-107022546D01*
X161990214Y-107022548D01*
X161990215Y-107022549D01*
X161885479Y-107127285D01*
X161885478Y-107127287D01*
X161837109Y-107211065D01*
X161806424Y-107264212D01*
X161806423Y-107264213D01*
X161794716Y-107307904D01*
X161765499Y-107416943D01*
X161765499Y-107416945D01*
X161765499Y-107585046D01*
X161765500Y-107585059D01*
X161765500Y-112037330D01*
X161765499Y-112037348D01*
X161765499Y-112203054D01*
X161765498Y-112203054D01*
X161799380Y-112329502D01*
X161806423Y-112355785D01*
X161826457Y-112390484D01*
X161833364Y-112402447D01*
X161885479Y-112492715D01*
X162004349Y-112611585D01*
X162004355Y-112611590D01*
X162144244Y-112751479D01*
X162177729Y-112812802D01*
X162180034Y-112850601D01*
X162160631Y-113059999D01*
X162160631Y-113060000D01*
X162180064Y-113269725D01*
X162180065Y-113269727D01*
X162237703Y-113472305D01*
X162237704Y-113472307D01*
X162237705Y-113472310D01*
X162268829Y-113534815D01*
X162331585Y-113660847D01*
X162331590Y-113660855D01*
X162458520Y-113828937D01*
X162458523Y-113828940D01*
X162569699Y-113930290D01*
X162614172Y-113970832D01*
X162793248Y-114081712D01*
X162989650Y-114157798D01*
X163196688Y-114196500D01*
X163196690Y-114196500D01*
X163407310Y-114196500D01*
X163407312Y-114196500D01*
X163614350Y-114157798D01*
X163810752Y-114081712D01*
X163989828Y-113970832D01*
X164145482Y-113828935D01*
X164272411Y-113660853D01*
X164366295Y-113472310D01*
X164423935Y-113269726D01*
X164443369Y-113060000D01*
X164423935Y-112850274D01*
X164366295Y-112647690D01*
X164289126Y-112492715D01*
X164272414Y-112459152D01*
X164272409Y-112459144D01*
X164220559Y-112390484D01*
X164145482Y-112291065D01*
X164145479Y-112291062D01*
X164145476Y-112291059D01*
X163989829Y-112149169D01*
X163989828Y-112149168D01*
X163810752Y-112038288D01*
X163810751Y-112038287D01*
X163667144Y-111982654D01*
X163614350Y-111962202D01*
X163407312Y-111923500D01*
X163196688Y-111923500D01*
X163181113Y-111926411D01*
X163113284Y-111939090D01*
X163043769Y-111932058D01*
X162989091Y-111888560D01*
X162966609Y-111822406D01*
X162966500Y-111817201D01*
X162966500Y-111762797D01*
X162986185Y-111695758D01*
X163038989Y-111650003D01*
X163108147Y-111640059D01*
X163113262Y-111640905D01*
X163196688Y-111656500D01*
X163196689Y-111656500D01*
X163407310Y-111656500D01*
X163407312Y-111656500D01*
X163614350Y-111617798D01*
X163810752Y-111541712D01*
X163989828Y-111430832D01*
X164145482Y-111288935D01*
X164272411Y-111120853D01*
X164366295Y-110932310D01*
X164423935Y-110729726D01*
X164443369Y-110520000D01*
X164423965Y-110310599D01*
X164437380Y-110242031D01*
X164459752Y-110211481D01*
X165460506Y-109210728D01*
X165460511Y-109210724D01*
X165470714Y-109200520D01*
X165470716Y-109200520D01*
X165582520Y-109088716D01*
X165661577Y-108951784D01*
X165691534Y-108839981D01*
X165702500Y-108799058D01*
X165702500Y-108756097D01*
X165722185Y-108689058D01*
X165738819Y-108668416D01*
X166264747Y-108142488D01*
X166892573Y-107514661D01*
X166953894Y-107481178D01*
X167023586Y-107486162D01*
X167079519Y-107528034D01*
X167103936Y-107593498D01*
X167103780Y-107613151D01*
X167096532Y-107695997D01*
X167096532Y-107696001D01*
X167116364Y-107922686D01*
X167116366Y-107922697D01*
X167175258Y-108142488D01*
X167175261Y-108142497D01*
X167271431Y-108348732D01*
X167271432Y-108348734D01*
X167401954Y-108535141D01*
X167562858Y-108696045D01*
X167562861Y-108696047D01*
X167749266Y-108826568D01*
X167807275Y-108853618D01*
X167859714Y-108899791D01*
X167878866Y-108966984D01*
X167858650Y-109033865D01*
X167807275Y-109078382D01*
X167749267Y-109105431D01*
X167749265Y-109105432D01*
X167562858Y-109235954D01*
X167401954Y-109396858D01*
X167271432Y-109583265D01*
X167271431Y-109583267D01*
X167175261Y-109789502D01*
X167175258Y-109789511D01*
X167116366Y-110009302D01*
X167116364Y-110009313D01*
X167096532Y-110235998D01*
X167096532Y-110236001D01*
X167116364Y-110462686D01*
X167116366Y-110462697D01*
X167175258Y-110682488D01*
X167175261Y-110682497D01*
X167271431Y-110888732D01*
X167271432Y-110888734D01*
X167401954Y-111075141D01*
X167562858Y-111236045D01*
X167562861Y-111236047D01*
X167749266Y-111366568D01*
X167792154Y-111386567D01*
X167807275Y-111393618D01*
X167859714Y-111439791D01*
X167878866Y-111506984D01*
X167858650Y-111573865D01*
X167807275Y-111618382D01*
X167749267Y-111645431D01*
X167749265Y-111645432D01*
X167562858Y-111775954D01*
X167401954Y-111936858D01*
X167271432Y-112123265D01*
X167271431Y-112123267D01*
X167175261Y-112329502D01*
X167175258Y-112329511D01*
X167116366Y-112549302D01*
X167116364Y-112549313D01*
X167096532Y-112775998D01*
X167096532Y-112776001D01*
X167116364Y-113002686D01*
X167116366Y-113002697D01*
X167175258Y-113222488D01*
X167175261Y-113222497D01*
X167271431Y-113428732D01*
X167271432Y-113428734D01*
X167401954Y-113615141D01*
X167562858Y-113776045D01*
X167562861Y-113776047D01*
X167749266Y-113906568D01*
X167955504Y-114002739D01*
X168175308Y-114061635D01*
X168337230Y-114075801D01*
X168401998Y-114081468D01*
X168402000Y-114081468D01*
X168402002Y-114081468D01*
X168458673Y-114076509D01*
X168628692Y-114061635D01*
X168848496Y-114002739D01*
X169054734Y-113906568D01*
X169241139Y-113776047D01*
X169402047Y-113615139D01*
X169532568Y-113428734D01*
X169628739Y-113222496D01*
X169687635Y-113002692D01*
X169707468Y-112776000D01*
X169705718Y-112756002D01*
X169701111Y-112703339D01*
X169687635Y-112549308D01*
X169628739Y-112329504D01*
X169532568Y-112123266D01*
X169434839Y-111983693D01*
X169402045Y-111936858D01*
X169241141Y-111775954D01*
X169054734Y-111645432D01*
X169054728Y-111645429D01*
X169012777Y-111625867D01*
X168996724Y-111618381D01*
X168944285Y-111572210D01*
X168925133Y-111505017D01*
X168945348Y-111438135D01*
X168996725Y-111393618D01*
X169054734Y-111366568D01*
X169241139Y-111236047D01*
X169402047Y-111075139D01*
X169532568Y-110888734D01*
X169628739Y-110682496D01*
X169687635Y-110462692D01*
X169707468Y-110236000D01*
X169687635Y-110009308D01*
X169628739Y-109789504D01*
X169532568Y-109583266D01*
X169426070Y-109431170D01*
X169402045Y-109396858D01*
X169241141Y-109235954D01*
X169054734Y-109105432D01*
X169054728Y-109105429D01*
X168996725Y-109078382D01*
X168944285Y-109032210D01*
X168925133Y-108965017D01*
X168945348Y-108898135D01*
X168996725Y-108853618D01*
X169054734Y-108826568D01*
X169241139Y-108696047D01*
X169402047Y-108535139D01*
X169532568Y-108348734D01*
X169628739Y-108142496D01*
X169687635Y-107922692D01*
X169707468Y-107696000D01*
X169687635Y-107469308D01*
X169628739Y-107249504D01*
X169532568Y-107043266D01*
X169422174Y-106885606D01*
X169402045Y-106856858D01*
X169241141Y-106695954D01*
X169054734Y-106565432D01*
X169054728Y-106565429D01*
X168996725Y-106538382D01*
X168944285Y-106492210D01*
X168925133Y-106425017D01*
X168945348Y-106358135D01*
X168996725Y-106313618D01*
X169054734Y-106286568D01*
X169241139Y-106156047D01*
X169402047Y-105995139D01*
X169532568Y-105808734D01*
X169628739Y-105602496D01*
X169687635Y-105382692D01*
X169707468Y-105156000D01*
X169687635Y-104929308D01*
X169628739Y-104709504D01*
X169532568Y-104503266D01*
X169426070Y-104351170D01*
X169402045Y-104316858D01*
X169241141Y-104155954D01*
X169054734Y-104025432D01*
X169054728Y-104025429D01*
X168996725Y-103998382D01*
X168944285Y-103952210D01*
X168925133Y-103885017D01*
X168945348Y-103818135D01*
X168996725Y-103773618D01*
X169054734Y-103746568D01*
X169241139Y-103616047D01*
X169402047Y-103455139D01*
X169532568Y-103268734D01*
X169628739Y-103062496D01*
X169687635Y-102842692D01*
X169707468Y-102616000D01*
X169700219Y-102533149D01*
X169713985Y-102464652D01*
X169762600Y-102414469D01*
X169830628Y-102398535D01*
X169896472Y-102421910D01*
X169911428Y-102434663D01*
X174437139Y-106960374D01*
X174437149Y-106960385D01*
X174441479Y-106964715D01*
X174441480Y-106964716D01*
X174553284Y-107076520D01*
X174553286Y-107076521D01*
X174553290Y-107076524D01*
X174690209Y-107155573D01*
X174690216Y-107155577D01*
X174691932Y-107156036D01*
X174693215Y-107156819D01*
X174697723Y-107158686D01*
X174697431Y-107159388D01*
X174751592Y-107192402D01*
X174782120Y-107255249D01*
X174779612Y-107307904D01*
X174736366Y-107469302D01*
X174736364Y-107469313D01*
X174716532Y-107695998D01*
X174716532Y-107696001D01*
X174736364Y-107922686D01*
X174736366Y-107922697D01*
X174795258Y-108142488D01*
X174795261Y-108142497D01*
X174891431Y-108348732D01*
X174891432Y-108348734D01*
X175021954Y-108535141D01*
X175182858Y-108696045D01*
X175182861Y-108696047D01*
X175369266Y-108826568D01*
X175427275Y-108853618D01*
X175479714Y-108899791D01*
X175498866Y-108966984D01*
X175478650Y-109033865D01*
X175427275Y-109078382D01*
X175369267Y-109105431D01*
X175369265Y-109105432D01*
X175182858Y-109235954D01*
X175021954Y-109396858D01*
X174891432Y-109583265D01*
X174891431Y-109583267D01*
X174795261Y-109789502D01*
X174795258Y-109789511D01*
X174736366Y-110009302D01*
X174736364Y-110009313D01*
X174716532Y-110235998D01*
X174716532Y-110236001D01*
X174736364Y-110462686D01*
X174736366Y-110462697D01*
X174795258Y-110682488D01*
X174795261Y-110682497D01*
X174891431Y-110888732D01*
X174891432Y-110888734D01*
X175021954Y-111075141D01*
X175182858Y-111236045D01*
X175182861Y-111236047D01*
X175369266Y-111366568D01*
X175412154Y-111386567D01*
X175427275Y-111393618D01*
X175479714Y-111439791D01*
X175498866Y-111506984D01*
X175478650Y-111573865D01*
X175427275Y-111618382D01*
X175369267Y-111645431D01*
X175369265Y-111645432D01*
X175182858Y-111775954D01*
X175021954Y-111936858D01*
X174891432Y-112123265D01*
X174891431Y-112123267D01*
X174795261Y-112329502D01*
X174795258Y-112329511D01*
X174736366Y-112549302D01*
X174736364Y-112549313D01*
X174716532Y-112775998D01*
X174716532Y-112776001D01*
X174736364Y-113002686D01*
X174736366Y-113002697D01*
X174795258Y-113222488D01*
X174795261Y-113222497D01*
X174891431Y-113428732D01*
X174891432Y-113428734D01*
X175021954Y-113615141D01*
X175182858Y-113776045D01*
X175182861Y-113776047D01*
X175369266Y-113906568D01*
X175575504Y-114002739D01*
X175795308Y-114061635D01*
X175957230Y-114075801D01*
X176021998Y-114081468D01*
X176022000Y-114081468D01*
X176022002Y-114081468D01*
X176078673Y-114076509D01*
X176248692Y-114061635D01*
X176468496Y-114002739D01*
X176674734Y-113906568D01*
X176861139Y-113776047D01*
X177022047Y-113615139D01*
X177152568Y-113428734D01*
X177248739Y-113222496D01*
X177307635Y-113002692D01*
X177327468Y-112776000D01*
X177325718Y-112756002D01*
X177321111Y-112703339D01*
X177307635Y-112549308D01*
X177248739Y-112329504D01*
X177152568Y-112123266D01*
X177054839Y-111983693D01*
X177022045Y-111936858D01*
X176861141Y-111775954D01*
X176674734Y-111645432D01*
X176674728Y-111645429D01*
X176632777Y-111625867D01*
X176616724Y-111618381D01*
X176564285Y-111572210D01*
X176545133Y-111505017D01*
X176565348Y-111438135D01*
X176616725Y-111393618D01*
X176674734Y-111366568D01*
X176861139Y-111236047D01*
X177022047Y-111075139D01*
X177152568Y-110888734D01*
X177248739Y-110682496D01*
X177307635Y-110462692D01*
X177327468Y-110236000D01*
X177307635Y-110009308D01*
X177248739Y-109789504D01*
X177152568Y-109583266D01*
X177046070Y-109431170D01*
X177022045Y-109396858D01*
X176861141Y-109235954D01*
X176674734Y-109105432D01*
X176674728Y-109105429D01*
X176616725Y-109078382D01*
X176564285Y-109032210D01*
X176545133Y-108965017D01*
X176565348Y-108898135D01*
X176616725Y-108853618D01*
X176674734Y-108826568D01*
X176861139Y-108696047D01*
X177022047Y-108535139D01*
X177152568Y-108348734D01*
X177248739Y-108142496D01*
X177307635Y-107922692D01*
X177327468Y-107696000D01*
X177322137Y-107635068D01*
X177335903Y-107566570D01*
X177384518Y-107516387D01*
X177452547Y-107500453D01*
X177518391Y-107523828D01*
X177533346Y-107536581D01*
X179810058Y-109813293D01*
X179843543Y-109874616D01*
X179842152Y-109933067D01*
X179816366Y-110029302D01*
X179816364Y-110029313D01*
X179796532Y-110255998D01*
X179796532Y-110256001D01*
X179816364Y-110482686D01*
X179816366Y-110482697D01*
X179875258Y-110702488D01*
X179875261Y-110702497D01*
X179971431Y-110908732D01*
X179971432Y-110908734D01*
X180101954Y-111095141D01*
X180262858Y-111256045D01*
X180262861Y-111256047D01*
X180449266Y-111386568D01*
X180464975Y-111393893D01*
X180517414Y-111440064D01*
X180536567Y-111507257D01*
X180516352Y-111574138D01*
X180464979Y-111618656D01*
X180449514Y-111625867D01*
X180449512Y-111625868D01*
X180376526Y-111676973D01*
X180376526Y-111676974D01*
X181055553Y-112356000D01*
X181049339Y-112356000D01*
X180947606Y-112383259D01*
X180856394Y-112435920D01*
X180781920Y-112510394D01*
X180729259Y-112601606D01*
X180702000Y-112703339D01*
X180702000Y-112709552D01*
X180022974Y-112030526D01*
X180022973Y-112030526D01*
X179971868Y-112103512D01*
X179971866Y-112103516D01*
X179875734Y-112309673D01*
X179875730Y-112309682D01*
X179816860Y-112529389D01*
X179816858Y-112529400D01*
X179797034Y-112755997D01*
X179797034Y-112756002D01*
X179816858Y-112982599D01*
X179816860Y-112982610D01*
X179875730Y-113202317D01*
X179875735Y-113202331D01*
X179971863Y-113408478D01*
X180022974Y-113481472D01*
X180702000Y-112802446D01*
X180702000Y-112808661D01*
X180729259Y-112910394D01*
X180781920Y-113001606D01*
X180856394Y-113076080D01*
X180947606Y-113128741D01*
X181049339Y-113156000D01*
X181055553Y-113156000D01*
X180376526Y-113835025D01*
X180449513Y-113886132D01*
X180449521Y-113886136D01*
X180655668Y-113982264D01*
X180655682Y-113982269D01*
X180875389Y-114041139D01*
X180875400Y-114041141D01*
X181101998Y-114060966D01*
X181102002Y-114060966D01*
X181328599Y-114041141D01*
X181328610Y-114041139D01*
X181548317Y-113982269D01*
X181548331Y-113982264D01*
X181754478Y-113886136D01*
X181827471Y-113835024D01*
X181148447Y-113156000D01*
X181154661Y-113156000D01*
X181256394Y-113128741D01*
X181347606Y-113076080D01*
X181422080Y-113001606D01*
X181474741Y-112910394D01*
X181502000Y-112808661D01*
X181502000Y-112802447D01*
X182181024Y-113481471D01*
X182232136Y-113408478D01*
X182328264Y-113202331D01*
X182328269Y-113202317D01*
X182387139Y-112982610D01*
X182387141Y-112982599D01*
X182406966Y-112756002D01*
X182406966Y-112755997D01*
X182387141Y-112529400D01*
X182387139Y-112529389D01*
X182328269Y-112309682D01*
X182328264Y-112309668D01*
X182232136Y-112103521D01*
X182232132Y-112103513D01*
X182181025Y-112030526D01*
X181502000Y-112709551D01*
X181502000Y-112703339D01*
X181474741Y-112601606D01*
X181422080Y-112510394D01*
X181347606Y-112435920D01*
X181256394Y-112383259D01*
X181154661Y-112356000D01*
X181148448Y-112356000D01*
X181827472Y-111676974D01*
X181754480Y-111625864D01*
X181739024Y-111618657D01*
X181686585Y-111572484D01*
X181667433Y-111505290D01*
X181687649Y-111438409D01*
X181739023Y-111393893D01*
X181754734Y-111386568D01*
X181941139Y-111256047D01*
X182102047Y-111095139D01*
X182232568Y-110908734D01*
X182328739Y-110702496D01*
X182387635Y-110482692D01*
X182407468Y-110256000D01*
X182387635Y-110029308D01*
X182361847Y-109933066D01*
X182363510Y-109863217D01*
X182393939Y-109813294D01*
X182560506Y-109646728D01*
X182560511Y-109646724D01*
X182570714Y-109636520D01*
X182570716Y-109636520D01*
X182682520Y-109524716D01*
X182744790Y-109416861D01*
X182747507Y-109412156D01*
X182761574Y-109387790D01*
X182761575Y-109387789D01*
X182761575Y-109387787D01*
X182761577Y-109387785D01*
X182802501Y-109235057D01*
X182802501Y-109076943D01*
X182802501Y-109069348D01*
X182802500Y-109069330D01*
X182802500Y-94407059D01*
X182802501Y-94407046D01*
X182802501Y-94238945D01*
X182802501Y-94238943D01*
X182761577Y-94086215D01*
X182726163Y-94024877D01*
X182726163Y-94024876D01*
X182682522Y-93949287D01*
X182682521Y-93949286D01*
X182682520Y-93949284D01*
X182570716Y-93837480D01*
X182570715Y-93837479D01*
X182566385Y-93833149D01*
X182566374Y-93833139D01*
X182353117Y-93619882D01*
X182319632Y-93558559D01*
X182321023Y-93500107D01*
X182338207Y-93435977D01*
X182357277Y-93218000D01*
X182357057Y-93215490D01*
X182349284Y-93126639D01*
X182338207Y-93000023D01*
X182281575Y-92788670D01*
X182189102Y-92590362D01*
X182189100Y-92590359D01*
X182189099Y-92590357D01*
X182063599Y-92411124D01*
X181996058Y-92343583D01*
X181908877Y-92256402D01*
X181750349Y-92145399D01*
X181729638Y-92130897D01*
X181630484Y-92084661D01*
X181531330Y-92038425D01*
X181531326Y-92038424D01*
X181531322Y-92038422D01*
X181319977Y-91981793D01*
X181102002Y-91962723D01*
X181101998Y-91962723D01*
X180956682Y-91975436D01*
X180884023Y-91981793D01*
X180884020Y-91981793D01*
X180672677Y-92038422D01*
X180672668Y-92038426D01*
X180474361Y-92130898D01*
X180474357Y-92130900D01*
X180295121Y-92256402D01*
X180140402Y-92411121D01*
X180014900Y-92590357D01*
X180014898Y-92590361D01*
X179922426Y-92788668D01*
X179922422Y-92788677D01*
X179865793Y-93000020D01*
X179865793Y-93000024D01*
X179846723Y-93217997D01*
X179846723Y-93218002D01*
X179865793Y-93435975D01*
X179865793Y-93435979D01*
X179922422Y-93647322D01*
X179922424Y-93647326D01*
X179922425Y-93647330D01*
X179959111Y-93726003D01*
X180014897Y-93845638D01*
X180039998Y-93881486D01*
X180140402Y-94024877D01*
X180295123Y-94179598D01*
X180474361Y-94305102D01*
X180672670Y-94397575D01*
X180884023Y-94454207D01*
X181054450Y-94469117D01*
X181101998Y-94473277D01*
X181102000Y-94473277D01*
X181102002Y-94473277D01*
X181130254Y-94470805D01*
X181319977Y-94454207D01*
X181384108Y-94437023D01*
X181453957Y-94438686D01*
X181503882Y-94469117D01*
X181565181Y-94530416D01*
X181598666Y-94591739D01*
X181601500Y-94618097D01*
X181601500Y-96775626D01*
X181581815Y-96842665D01*
X181529011Y-96888420D01*
X181459853Y-96898364D01*
X181445407Y-96895401D01*
X181319977Y-96861793D01*
X181102002Y-96842723D01*
X181101998Y-96842723D01*
X180956682Y-96855436D01*
X180884023Y-96861793D01*
X180884020Y-96861793D01*
X180672677Y-96918422D01*
X180672668Y-96918426D01*
X180474361Y-97010898D01*
X180474357Y-97010900D01*
X180295121Y-97136402D01*
X180140402Y-97291121D01*
X180014900Y-97470357D01*
X180014898Y-97470361D01*
X179922426Y-97668668D01*
X179922422Y-97668677D01*
X179865793Y-97880020D01*
X179865793Y-97880023D01*
X179846723Y-98098000D01*
X179861024Y-98261471D01*
X179865793Y-98315975D01*
X179865793Y-98315979D01*
X179922422Y-98527322D01*
X179922424Y-98527326D01*
X179922425Y-98527330D01*
X179926489Y-98536045D01*
X180014897Y-98725638D01*
X180014898Y-98725639D01*
X180140402Y-98904877D01*
X180295123Y-99059598D01*
X180448625Y-99167081D01*
X180492249Y-99221657D01*
X180501500Y-99268655D01*
X180501500Y-102908306D01*
X180481815Y-102975345D01*
X180448623Y-103009881D01*
X180262859Y-103139953D01*
X180101954Y-103300858D01*
X179971432Y-103487265D01*
X179971431Y-103487267D01*
X179875261Y-103693502D01*
X179875258Y-103693511D01*
X179816366Y-103913302D01*
X179816364Y-103913313D01*
X179796532Y-104139998D01*
X179796532Y-104140001D01*
X179816364Y-104366686D01*
X179816366Y-104366697D01*
X179875258Y-104586488D01*
X179875261Y-104586497D01*
X179971431Y-104792732D01*
X179971432Y-104792734D01*
X180101954Y-104979141D01*
X180262858Y-105140045D01*
X180262861Y-105140047D01*
X180449266Y-105270568D01*
X180464975Y-105277893D01*
X180517414Y-105324064D01*
X180536567Y-105391257D01*
X180516352Y-105458138D01*
X180464979Y-105502656D01*
X180449514Y-105509867D01*
X180449512Y-105509868D01*
X180376526Y-105560973D01*
X180376526Y-105560974D01*
X181055553Y-106240000D01*
X181049339Y-106240000D01*
X180947606Y-106267259D01*
X180856394Y-106319920D01*
X180781920Y-106394394D01*
X180729259Y-106485606D01*
X180702000Y-106587339D01*
X180702000Y-106593552D01*
X180022974Y-105914526D01*
X180022973Y-105914526D01*
X179971868Y-105987512D01*
X179971866Y-105987516D01*
X179875734Y-106193673D01*
X179875730Y-106193682D01*
X179816860Y-106413389D01*
X179816858Y-106413400D01*
X179797034Y-106639997D01*
X179797034Y-106640002D01*
X179816858Y-106866599D01*
X179816860Y-106866610D01*
X179875730Y-107086317D01*
X179875735Y-107086331D01*
X179971863Y-107292478D01*
X180022974Y-107365472D01*
X180702000Y-106686446D01*
X180702000Y-106692661D01*
X180729259Y-106794394D01*
X180781920Y-106885606D01*
X180856394Y-106960080D01*
X180947606Y-107012741D01*
X181049339Y-107040000D01*
X181055551Y-107040000D01*
X180376526Y-107719025D01*
X180449513Y-107770132D01*
X180449521Y-107770136D01*
X180655668Y-107866264D01*
X180655682Y-107866269D01*
X180875389Y-107925139D01*
X180875400Y-107925141D01*
X181101998Y-107944966D01*
X181102002Y-107944966D01*
X181328599Y-107925141D01*
X181328609Y-107925139D01*
X181445407Y-107893844D01*
X181515256Y-107895507D01*
X181573119Y-107934669D01*
X181600623Y-107998898D01*
X181601500Y-108013619D01*
X181601500Y-108855901D01*
X181581815Y-108922940D01*
X181565181Y-108943582D01*
X181544705Y-108964058D01*
X181483382Y-108997543D01*
X181424931Y-108996152D01*
X181328697Y-108970366D01*
X181328693Y-108970365D01*
X181328692Y-108970365D01*
X181328691Y-108970364D01*
X181328686Y-108970364D01*
X181102002Y-108950532D01*
X181101998Y-108950532D01*
X180875313Y-108970364D01*
X180875302Y-108970366D01*
X180779067Y-108996152D01*
X180709217Y-108994489D01*
X180659293Y-108964058D01*
X177929590Y-106234355D01*
X177929588Y-106234352D01*
X177810717Y-106115481D01*
X177810716Y-106115480D01*
X177723904Y-106065360D01*
X177723904Y-106065359D01*
X177723900Y-106065358D01*
X177673785Y-106036423D01*
X177521057Y-105995499D01*
X177362943Y-105995499D01*
X177355347Y-105995499D01*
X177355331Y-105995500D01*
X177259512Y-105995500D01*
X177192473Y-105975815D01*
X177146718Y-105923011D01*
X177136774Y-105853853D01*
X177150636Y-105813806D01*
X177150280Y-105813640D01*
X177151887Y-105810193D01*
X177152130Y-105809492D01*
X177152559Y-105808746D01*
X177152568Y-105808734D01*
X177248739Y-105602496D01*
X177307635Y-105382692D01*
X177327468Y-105156000D01*
X177307635Y-104929308D01*
X177248739Y-104709504D01*
X177152568Y-104503266D01*
X177046070Y-104351170D01*
X177022045Y-104316858D01*
X176861141Y-104155954D01*
X176674734Y-104025432D01*
X176674728Y-104025429D01*
X176616725Y-103998382D01*
X176564285Y-103952210D01*
X176545133Y-103885017D01*
X176565348Y-103818135D01*
X176616725Y-103773618D01*
X176674734Y-103746568D01*
X176861139Y-103616047D01*
X177022047Y-103455139D01*
X177152568Y-103268734D01*
X177248739Y-103062496D01*
X177307635Y-102842692D01*
X177327468Y-102616000D01*
X177307635Y-102389308D01*
X177248739Y-102169504D01*
X177152568Y-101963266D01*
X177024203Y-101779940D01*
X177022045Y-101776858D01*
X176861141Y-101615954D01*
X176674734Y-101485432D01*
X176674728Y-101485429D01*
X176616725Y-101458382D01*
X176564285Y-101412210D01*
X176545133Y-101345017D01*
X176565348Y-101278135D01*
X176616725Y-101233618D01*
X176674734Y-101206568D01*
X176861139Y-101076047D01*
X177022047Y-100915139D01*
X177152568Y-100728734D01*
X177248739Y-100522496D01*
X177307635Y-100302692D01*
X177327468Y-100076000D01*
X177307635Y-99849308D01*
X177248739Y-99629504D01*
X177152568Y-99423266D01*
X177022047Y-99236861D01*
X177022045Y-99236858D01*
X176861141Y-99075954D01*
X176674734Y-98945432D01*
X176674728Y-98945429D01*
X176616725Y-98918382D01*
X176564285Y-98872210D01*
X176545133Y-98805017D01*
X176565348Y-98738135D01*
X176616725Y-98693618D01*
X176617319Y-98693341D01*
X176674734Y-98666568D01*
X176861139Y-98536047D01*
X177022047Y-98375139D01*
X177152568Y-98188734D01*
X177248739Y-97982496D01*
X177307635Y-97762692D01*
X177327468Y-97536000D01*
X177307635Y-97309308D01*
X177248739Y-97089504D01*
X177152568Y-96883266D01*
X177022047Y-96696861D01*
X177022045Y-96696858D01*
X176861141Y-96535954D01*
X176714394Y-96433202D01*
X176674734Y-96405432D01*
X176616132Y-96378105D01*
X176563694Y-96331933D01*
X176544543Y-96264739D01*
X176564759Y-96197858D01*
X176616135Y-96153341D01*
X176674482Y-96126133D01*
X176747471Y-96075024D01*
X176151409Y-95478962D01*
X176214993Y-95461925D01*
X176329007Y-95396099D01*
X176422099Y-95303007D01*
X176487925Y-95188993D01*
X176504962Y-95125409D01*
X177101024Y-95721471D01*
X177152136Y-95648478D01*
X177248264Y-95442331D01*
X177248269Y-95442317D01*
X177307139Y-95222610D01*
X177307141Y-95222599D01*
X177326966Y-94996002D01*
X177326966Y-94995997D01*
X177307141Y-94769400D01*
X177307139Y-94769389D01*
X177248269Y-94549682D01*
X177248264Y-94549668D01*
X177152136Y-94343521D01*
X177152132Y-94343513D01*
X177101025Y-94270526D01*
X176504962Y-94866589D01*
X176487925Y-94803007D01*
X176422099Y-94688993D01*
X176329007Y-94595901D01*
X176214993Y-94530075D01*
X176151410Y-94513037D01*
X176747472Y-93916974D01*
X176674480Y-93865864D01*
X176616134Y-93838657D01*
X176563695Y-93792484D01*
X176544543Y-93725291D01*
X176564759Y-93658410D01*
X176616134Y-93613893D01*
X176674734Y-93586568D01*
X176861139Y-93456047D01*
X177022047Y-93295139D01*
X177152568Y-93108734D01*
X177248739Y-92902496D01*
X177307635Y-92682692D01*
X177327468Y-92456000D01*
X177307635Y-92229308D01*
X177287082Y-92152604D01*
X177281847Y-92133066D01*
X177283510Y-92063217D01*
X177313939Y-92013294D01*
X180156506Y-89170728D01*
X180156511Y-89170724D01*
X180166714Y-89160520D01*
X180166716Y-89160520D01*
X180278520Y-89048716D01*
X180357577Y-88911784D01*
X180398500Y-88759057D01*
X180398500Y-87738000D01*
X180418185Y-87670961D01*
X180470989Y-87625206D01*
X180522500Y-87614000D01*
X180598000Y-87614000D01*
X181098000Y-87614000D01*
X181196492Y-87614000D01*
X181196495Y-87613999D01*
X181389681Y-87575572D01*
X181389693Y-87575569D01*
X181571671Y-87500192D01*
X181571684Y-87500185D01*
X181735462Y-87390751D01*
X181735466Y-87390748D01*
X181874748Y-87251466D01*
X181874751Y-87251462D01*
X181984185Y-87087684D01*
X181984192Y-87087671D01*
X182059569Y-86905692D01*
X182059569Y-86905690D01*
X182067862Y-86864000D01*
X181098000Y-86864000D01*
X181098000Y-87614000D01*
X180598000Y-87614000D01*
X180598000Y-86729056D01*
X180614866Y-86769775D01*
X180692225Y-86847134D01*
X180793299Y-86889000D01*
X180902701Y-86889000D01*
X181003775Y-86847134D01*
X181081134Y-86769775D01*
X181123000Y-86668701D01*
X181123000Y-86559299D01*
X181081134Y-86458225D01*
X181003775Y-86380866D01*
X180963057Y-86364000D01*
X182067862Y-86364000D01*
X182059569Y-86322309D01*
X182059569Y-86322307D01*
X181984192Y-86140328D01*
X181984188Y-86140321D01*
X181922728Y-86048341D01*
X181901850Y-85981663D01*
X181920334Y-85914283D01*
X181922704Y-85910595D01*
X181984632Y-85817914D01*
X181988208Y-85809282D01*
X182043771Y-85675139D01*
X182060051Y-85635835D01*
X182083199Y-85519464D01*
X182098500Y-85442543D01*
X182098500Y-85245456D01*
X182060052Y-85052170D01*
X182060051Y-85052169D01*
X182060051Y-85052165D01*
X182017680Y-84949873D01*
X182010212Y-84880407D01*
X182032977Y-84828111D01*
X182041796Y-84816331D01*
X182092091Y-84681483D01*
X182098500Y-84621873D01*
X182098499Y-83526128D01*
X182092091Y-83466517D01*
X182081443Y-83437969D01*
X182041797Y-83331671D01*
X182041793Y-83331664D01*
X181955547Y-83216455D01*
X181955544Y-83216452D01*
X181840335Y-83130206D01*
X181840328Y-83130202D01*
X181705482Y-83079908D01*
X181705483Y-83079908D01*
X181645883Y-83073501D01*
X181645881Y-83073500D01*
X181645873Y-83073500D01*
X181645864Y-83073500D01*
X180050129Y-83073500D01*
X180050123Y-83073501D01*
X179990516Y-83079908D01*
X179855671Y-83130202D01*
X179855664Y-83130206D01*
X179740455Y-83216452D01*
X179740452Y-83216455D01*
X179654206Y-83331664D01*
X179654202Y-83331671D01*
X179603908Y-83466517D01*
X179597864Y-83522739D01*
X179597501Y-83526123D01*
X179597500Y-83526135D01*
X179597500Y-84621870D01*
X179597501Y-84621876D01*
X179603908Y-84681483D01*
X179654202Y-84816328D01*
X179654206Y-84816335D01*
X179663023Y-84828113D01*
X179687440Y-84893578D01*
X179678318Y-84949874D01*
X179672771Y-84963266D01*
X179635950Y-85052164D01*
X179635948Y-85052168D01*
X179635947Y-85052171D01*
X179597500Y-85245456D01*
X179597500Y-85442542D01*
X179598958Y-85449873D01*
X179592729Y-85519464D01*
X179565022Y-85561742D01*
X179429286Y-85697478D01*
X179317481Y-85809282D01*
X179317475Y-85809290D01*
X179280435Y-85873447D01*
X179280435Y-85873449D01*
X179238423Y-85946214D01*
X179232969Y-85966568D01*
X179197499Y-86098943D01*
X179197499Y-86098945D01*
X179197499Y-86267046D01*
X179197500Y-86267059D01*
X179197500Y-88379902D01*
X179177815Y-88446941D01*
X179161181Y-88467583D01*
X177531428Y-90097335D01*
X177470105Y-90130820D01*
X177400413Y-90125836D01*
X177344480Y-90083964D01*
X177320063Y-90018500D01*
X177320218Y-89998857D01*
X177327468Y-89916000D01*
X177307635Y-89689308D01*
X177248739Y-89469504D01*
X177152568Y-89263266D01*
X177022047Y-89076861D01*
X177022045Y-89076858D01*
X176861141Y-88915954D01*
X176674734Y-88785432D01*
X176674728Y-88785429D01*
X176618173Y-88759057D01*
X176616724Y-88758381D01*
X176564285Y-88712210D01*
X176545133Y-88645017D01*
X176565348Y-88578135D01*
X176616725Y-88533618D01*
X176674734Y-88506568D01*
X176861139Y-88376047D01*
X177022047Y-88215139D01*
X177152568Y-88028734D01*
X177248739Y-87822496D01*
X177307635Y-87602692D01*
X177324634Y-87408384D01*
X177327468Y-87376001D01*
X177327468Y-87375998D01*
X177307635Y-87149313D01*
X177307635Y-87149308D01*
X177248739Y-86929504D01*
X177152568Y-86723266D01*
X177022047Y-86536861D01*
X177022045Y-86536858D01*
X176861141Y-86375954D01*
X176674734Y-86245432D01*
X176674728Y-86245429D01*
X176647038Y-86232517D01*
X176616724Y-86218381D01*
X176564285Y-86172210D01*
X176545133Y-86105017D01*
X176565348Y-86038135D01*
X176616725Y-85993618D01*
X176674734Y-85966568D01*
X176861139Y-85836047D01*
X177022047Y-85675139D01*
X177152568Y-85488734D01*
X177248739Y-85282496D01*
X177307635Y-85062692D01*
X177327468Y-84836000D01*
X177327133Y-84832175D01*
X177318520Y-84733721D01*
X177307635Y-84609308D01*
X177248739Y-84389504D01*
X177152568Y-84183266D01*
X177022047Y-83996861D01*
X177022045Y-83996858D01*
X176861141Y-83835954D01*
X176674734Y-83705432D01*
X176674728Y-83705429D01*
X176616725Y-83678382D01*
X176564285Y-83632210D01*
X176545133Y-83565017D01*
X176565348Y-83498135D01*
X176616725Y-83453618D01*
X176674734Y-83426568D01*
X176861139Y-83296047D01*
X177022047Y-83135139D01*
X177152568Y-82948734D01*
X177248739Y-82742496D01*
X177307635Y-82522692D01*
X177327468Y-82296000D01*
X177326234Y-82281900D01*
X177307635Y-82069313D01*
X177307635Y-82069308D01*
X177248739Y-81849504D01*
X177152568Y-81643266D01*
X177054839Y-81503693D01*
X177022045Y-81456858D01*
X176861141Y-81295954D01*
X176674734Y-81165432D01*
X176674728Y-81165429D01*
X176616725Y-81138382D01*
X176564285Y-81092210D01*
X176545133Y-81025017D01*
X176565348Y-80958135D01*
X176616725Y-80913618D01*
X176674734Y-80886568D01*
X176861139Y-80756047D01*
X177022047Y-80595139D01*
X177152568Y-80408734D01*
X177248739Y-80202496D01*
X177307635Y-79982692D01*
X177327468Y-79756000D01*
X177307635Y-79529308D01*
X177262841Y-79362135D01*
X180001500Y-79362135D01*
X180001500Y-80657870D01*
X180001501Y-80657876D01*
X180007908Y-80717483D01*
X180058202Y-80852328D01*
X180058206Y-80852335D01*
X180144452Y-80967544D01*
X180144455Y-80967547D01*
X180259664Y-81053793D01*
X180259671Y-81053797D01*
X180394517Y-81104091D01*
X180394516Y-81104091D01*
X180401444Y-81104835D01*
X180454127Y-81110500D01*
X181749872Y-81110499D01*
X181809483Y-81104091D01*
X181944331Y-81053796D01*
X182059546Y-80967546D01*
X182145796Y-80852331D01*
X182196091Y-80717483D01*
X182202500Y-80657873D01*
X182202499Y-79362128D01*
X182196091Y-79302517D01*
X182188302Y-79281634D01*
X182145797Y-79167671D01*
X182145793Y-79167664D01*
X182059547Y-79052455D01*
X182059544Y-79052452D01*
X181944335Y-78966206D01*
X181944328Y-78966202D01*
X181809482Y-78915908D01*
X181809483Y-78915908D01*
X181749883Y-78909501D01*
X181749881Y-78909500D01*
X181749873Y-78909500D01*
X181749865Y-78909500D01*
X181699308Y-78909500D01*
X181632269Y-78889815D01*
X181611627Y-78873181D01*
X181102001Y-78363553D01*
X181102000Y-78363553D01*
X180592370Y-78873181D01*
X180531047Y-78906666D01*
X180504691Y-78909500D01*
X180454130Y-78909500D01*
X180454123Y-78909501D01*
X180394516Y-78915908D01*
X180259671Y-78966202D01*
X180259664Y-78966206D01*
X180144455Y-79052452D01*
X180144452Y-79052455D01*
X180058206Y-79167664D01*
X180058202Y-79167671D01*
X180007908Y-79302517D01*
X180001501Y-79362116D01*
X180001501Y-79362123D01*
X180001500Y-79362135D01*
X177262841Y-79362135D01*
X177248739Y-79309504D01*
X177152568Y-79103266D01*
X177022047Y-78916861D01*
X177022045Y-78916858D01*
X176861141Y-78755954D01*
X176674734Y-78625432D01*
X176674732Y-78625431D01*
X176468497Y-78529261D01*
X176468488Y-78529258D01*
X176248697Y-78470366D01*
X176248693Y-78470365D01*
X176248692Y-78470365D01*
X176248691Y-78470364D01*
X176248686Y-78470364D01*
X176022002Y-78450532D01*
X176021998Y-78450532D01*
X175795313Y-78470364D01*
X175795302Y-78470366D01*
X175575511Y-78529258D01*
X175575502Y-78529261D01*
X175369267Y-78625431D01*
X175369265Y-78625432D01*
X175182858Y-78755954D01*
X175021954Y-78916858D01*
X174891432Y-79103265D01*
X174891431Y-79103267D01*
X174795261Y-79309502D01*
X174795258Y-79309511D01*
X174736366Y-79529302D01*
X174736364Y-79529313D01*
X174716532Y-79755998D01*
X174716532Y-79756001D01*
X174736364Y-79982686D01*
X174736366Y-79982697D01*
X174795258Y-80202488D01*
X174795261Y-80202497D01*
X174891431Y-80408732D01*
X174891432Y-80408734D01*
X175021954Y-80595141D01*
X175182858Y-80756045D01*
X175182861Y-80756047D01*
X175369266Y-80886568D01*
X175427275Y-80913618D01*
X175479714Y-80959791D01*
X175498866Y-81026984D01*
X175478650Y-81093865D01*
X175427275Y-81138382D01*
X175369267Y-81165431D01*
X175369265Y-81165432D01*
X175182858Y-81295954D01*
X175021954Y-81456858D01*
X174891432Y-81643265D01*
X174891431Y-81643267D01*
X174795261Y-81849502D01*
X174795258Y-81849511D01*
X174736366Y-82069302D01*
X174736364Y-82069313D01*
X174716532Y-82295998D01*
X174716532Y-82296001D01*
X174736364Y-82522686D01*
X174736366Y-82522697D01*
X174795258Y-82742488D01*
X174795261Y-82742497D01*
X174891431Y-82948732D01*
X174891432Y-82948734D01*
X175021954Y-83135141D01*
X175182858Y-83296045D01*
X175182861Y-83296047D01*
X175369266Y-83426568D01*
X175393720Y-83437971D01*
X175427275Y-83453618D01*
X175479714Y-83499791D01*
X175498866Y-83566984D01*
X175478650Y-83633865D01*
X175427275Y-83678382D01*
X175369267Y-83705431D01*
X175369265Y-83705432D01*
X175182858Y-83835954D01*
X175021954Y-83996858D01*
X174891432Y-84183265D01*
X174891431Y-84183267D01*
X174795261Y-84389502D01*
X174795258Y-84389511D01*
X174736366Y-84609302D01*
X174736364Y-84609313D01*
X174716532Y-84835998D01*
X174716532Y-84836001D01*
X174736364Y-85062686D01*
X174736366Y-85062697D01*
X174795258Y-85282488D01*
X174795261Y-85282497D01*
X174891431Y-85488732D01*
X174891432Y-85488734D01*
X175021954Y-85675141D01*
X175182858Y-85836045D01*
X175192351Y-85842692D01*
X175369266Y-85966568D01*
X175427275Y-85993618D01*
X175479714Y-86039791D01*
X175498866Y-86106984D01*
X175478650Y-86173865D01*
X175427275Y-86218382D01*
X175369267Y-86245431D01*
X175369265Y-86245432D01*
X175182858Y-86375954D01*
X175021954Y-86536858D01*
X174891432Y-86723265D01*
X174891431Y-86723267D01*
X174795261Y-86929502D01*
X174795258Y-86929511D01*
X174736366Y-87149302D01*
X174736364Y-87149313D01*
X174716532Y-87375998D01*
X174716532Y-87376001D01*
X174736364Y-87602686D01*
X174736366Y-87602697D01*
X174795258Y-87822488D01*
X174795261Y-87822497D01*
X174891431Y-88028732D01*
X174891432Y-88028734D01*
X175021954Y-88215141D01*
X175182858Y-88376045D01*
X175229693Y-88408839D01*
X175369266Y-88506568D01*
X175427275Y-88533618D01*
X175479714Y-88579791D01*
X175498866Y-88646984D01*
X175478650Y-88713865D01*
X175427275Y-88758381D01*
X175425827Y-88759057D01*
X175369267Y-88785431D01*
X175369265Y-88785432D01*
X175182858Y-88915954D01*
X175021954Y-89076858D01*
X174891432Y-89263265D01*
X174891431Y-89263267D01*
X174795261Y-89469502D01*
X174795258Y-89469511D01*
X174736366Y-89689302D01*
X174736364Y-89689313D01*
X174716532Y-89915998D01*
X174716532Y-89916001D01*
X174736364Y-90142686D01*
X174736366Y-90142697D01*
X174795258Y-90362488D01*
X174795261Y-90362497D01*
X174808795Y-90391520D01*
X174876410Y-90536520D01*
X174891431Y-90568731D01*
X174891432Y-90568734D01*
X175021954Y-90755141D01*
X175182858Y-90916045D01*
X175182861Y-90916047D01*
X175369266Y-91046568D01*
X175421789Y-91071060D01*
X175427275Y-91073618D01*
X175479714Y-91119791D01*
X175498866Y-91186984D01*
X175478650Y-91253865D01*
X175427275Y-91298382D01*
X175369267Y-91325431D01*
X175369265Y-91325432D01*
X175182858Y-91455954D01*
X175021954Y-91616858D01*
X174891432Y-91803265D01*
X174891431Y-91803267D01*
X174795261Y-92009502D01*
X174795258Y-92009511D01*
X174736366Y-92229302D01*
X174736365Y-92229306D01*
X174736365Y-92229308D01*
X174733989Y-92256468D01*
X174716532Y-92455998D01*
X174716532Y-92456001D01*
X174736364Y-92682686D01*
X174736366Y-92682697D01*
X174795258Y-92902488D01*
X174795261Y-92902497D01*
X174891431Y-93108732D01*
X174891432Y-93108734D01*
X175021954Y-93295141D01*
X175182858Y-93456045D01*
X175209112Y-93474428D01*
X175369266Y-93586568D01*
X175427865Y-93613893D01*
X175480305Y-93660065D01*
X175499457Y-93727258D01*
X175479242Y-93794139D01*
X175427867Y-93838657D01*
X175369513Y-93865868D01*
X175369512Y-93865868D01*
X175296526Y-93916973D01*
X175296526Y-93916974D01*
X175892590Y-94513037D01*
X175829007Y-94530075D01*
X175714993Y-94595901D01*
X175621901Y-94688993D01*
X175556075Y-94803007D01*
X175539037Y-94866589D01*
X174942974Y-94270526D01*
X174942973Y-94270526D01*
X174891868Y-94343512D01*
X174891866Y-94343516D01*
X174795734Y-94549673D01*
X174795730Y-94549682D01*
X174736860Y-94769389D01*
X174736858Y-94769400D01*
X174717034Y-94995997D01*
X174717034Y-94996002D01*
X174736858Y-95222599D01*
X174736860Y-95222610D01*
X174795730Y-95442317D01*
X174795735Y-95442331D01*
X174891863Y-95648478D01*
X174942974Y-95721472D01*
X175539037Y-95125409D01*
X175556075Y-95188993D01*
X175621901Y-95303007D01*
X175714993Y-95396099D01*
X175829007Y-95461925D01*
X175892590Y-95478962D01*
X175296526Y-96075025D01*
X175369513Y-96126132D01*
X175369521Y-96126136D01*
X175427864Y-96153342D01*
X175480304Y-96199514D01*
X175499456Y-96266707D01*
X175479241Y-96333589D01*
X175427866Y-96378105D01*
X175369272Y-96405428D01*
X175369265Y-96405432D01*
X175182858Y-96535954D01*
X175021954Y-96696858D01*
X174891432Y-96883265D01*
X174891431Y-96883267D01*
X174795261Y-97089502D01*
X174795258Y-97089511D01*
X174736366Y-97309302D01*
X174736364Y-97309313D01*
X174716532Y-97535998D01*
X174716532Y-97536001D01*
X174736364Y-97762686D01*
X174736366Y-97762697D01*
X174795258Y-97982488D01*
X174795261Y-97982497D01*
X174891431Y-98188732D01*
X174891432Y-98188734D01*
X175021954Y-98375141D01*
X175182858Y-98536045D01*
X175182861Y-98536047D01*
X175369266Y-98666568D01*
X175421789Y-98691060D01*
X175427275Y-98693618D01*
X175479714Y-98739791D01*
X175498866Y-98806984D01*
X175478650Y-98873865D01*
X175427275Y-98918382D01*
X175369267Y-98945431D01*
X175369265Y-98945432D01*
X175182858Y-99075954D01*
X175021954Y-99236858D01*
X174891432Y-99423265D01*
X174891431Y-99423267D01*
X174795261Y-99629502D01*
X174795258Y-99629511D01*
X174736366Y-99849302D01*
X174736364Y-99849313D01*
X174716532Y-100075998D01*
X174716532Y-100076001D01*
X174736364Y-100302686D01*
X174736366Y-100302697D01*
X174795258Y-100522488D01*
X174795261Y-100522497D01*
X174891431Y-100728732D01*
X174891432Y-100728734D01*
X175021954Y-100915141D01*
X175182858Y-101076045D01*
X175182861Y-101076047D01*
X175369266Y-101206568D01*
X175427275Y-101233618D01*
X175479714Y-101279791D01*
X175498866Y-101346984D01*
X175478650Y-101413865D01*
X175427275Y-101458382D01*
X175369267Y-101485431D01*
X175369265Y-101485432D01*
X175182858Y-101615954D01*
X175021954Y-101776858D01*
X174891432Y-101963265D01*
X174891431Y-101963267D01*
X174795261Y-102169502D01*
X174795258Y-102169511D01*
X174736366Y-102389302D01*
X174736364Y-102389313D01*
X174716532Y-102615998D01*
X174716532Y-102616001D01*
X174736364Y-102842686D01*
X174736366Y-102842697D01*
X174795258Y-103062488D01*
X174795261Y-103062497D01*
X174891431Y-103268732D01*
X174891432Y-103268734D01*
X175021954Y-103455141D01*
X175182858Y-103616045D01*
X175182861Y-103616047D01*
X175369266Y-103746568D01*
X175427275Y-103773618D01*
X175479714Y-103819791D01*
X175498866Y-103886984D01*
X175478650Y-103953865D01*
X175427275Y-103998382D01*
X175369267Y-104025431D01*
X175369265Y-104025432D01*
X175182858Y-104155954D01*
X175021954Y-104316858D01*
X174891432Y-104503265D01*
X174891431Y-104503267D01*
X174795261Y-104709502D01*
X174795258Y-104709511D01*
X174736366Y-104929302D01*
X174736364Y-104929313D01*
X174716532Y-105155998D01*
X174716532Y-105156002D01*
X174723780Y-105238848D01*
X174710013Y-105307348D01*
X174661398Y-105357531D01*
X174593369Y-105373464D01*
X174527526Y-105350089D01*
X174512571Y-105337336D01*
X169693941Y-100518706D01*
X169660456Y-100457383D01*
X169661847Y-100398931D01*
X169678270Y-100337641D01*
X169687635Y-100302692D01*
X169707468Y-100076000D01*
X169687635Y-99849308D01*
X169628739Y-99629504D01*
X169532568Y-99423266D01*
X169402047Y-99236861D01*
X169402045Y-99236858D01*
X169241141Y-99075954D01*
X169054735Y-98945433D01*
X169054736Y-98945433D01*
X169054734Y-98945432D01*
X168996132Y-98918105D01*
X168943694Y-98871933D01*
X168924543Y-98804739D01*
X168944759Y-98737858D01*
X168996135Y-98693341D01*
X169054482Y-98666133D01*
X169127471Y-98615024D01*
X168531409Y-98018962D01*
X168594993Y-98001925D01*
X168709007Y-97936099D01*
X168802099Y-97843007D01*
X168867925Y-97728993D01*
X168884962Y-97665409D01*
X169481024Y-98261471D01*
X169532136Y-98188478D01*
X169628264Y-97982331D01*
X169628269Y-97982317D01*
X169687139Y-97762610D01*
X169687141Y-97762599D01*
X169706966Y-97536002D01*
X169706966Y-97535997D01*
X169687141Y-97309400D01*
X169687139Y-97309389D01*
X169628269Y-97089682D01*
X169628264Y-97089668D01*
X169532136Y-96883521D01*
X169532132Y-96883513D01*
X169481025Y-96810526D01*
X168884962Y-97406589D01*
X168867925Y-97343007D01*
X168802099Y-97228993D01*
X168709007Y-97135901D01*
X168594993Y-97070075D01*
X168531410Y-97053037D01*
X169127472Y-96456974D01*
X169054480Y-96405864D01*
X168996134Y-96378657D01*
X168943695Y-96332484D01*
X168924543Y-96265291D01*
X168944759Y-96198410D01*
X168996134Y-96153893D01*
X169054734Y-96126568D01*
X169241139Y-95996047D01*
X169402047Y-95835139D01*
X169532568Y-95648734D01*
X169628739Y-95442496D01*
X169687635Y-95222692D01*
X169707468Y-94996000D01*
X169687635Y-94769308D01*
X169628739Y-94549504D01*
X169532568Y-94343266D01*
X169434839Y-94203693D01*
X169402045Y-94156858D01*
X169241141Y-93995954D01*
X169054734Y-93865432D01*
X169054728Y-93865429D01*
X168996725Y-93838382D01*
X168944285Y-93792210D01*
X168925133Y-93725017D01*
X168945348Y-93658135D01*
X168996725Y-93613618D01*
X169054734Y-93586568D01*
X169241139Y-93456047D01*
X169402047Y-93295139D01*
X169532568Y-93108734D01*
X169628739Y-92902496D01*
X169687635Y-92682692D01*
X169707468Y-92456000D01*
X169687635Y-92229308D01*
X169628739Y-92009504D01*
X169532568Y-91803266D01*
X169402047Y-91616861D01*
X169402045Y-91616858D01*
X169241141Y-91455954D01*
X169054734Y-91325432D01*
X169054728Y-91325429D01*
X168996725Y-91298382D01*
X168944285Y-91252210D01*
X168925133Y-91185017D01*
X168945348Y-91118135D01*
X168996725Y-91073618D01*
X169054734Y-91046568D01*
X169241139Y-90916047D01*
X169402047Y-90755139D01*
X169532568Y-90568734D01*
X169628739Y-90362496D01*
X169687635Y-90142692D01*
X169707468Y-89916000D01*
X169687635Y-89689308D01*
X169628739Y-89469504D01*
X169532568Y-89263266D01*
X169402047Y-89076861D01*
X169402045Y-89076858D01*
X169241141Y-88915954D01*
X169054734Y-88785432D01*
X169054728Y-88785429D01*
X168998173Y-88759057D01*
X168996724Y-88758381D01*
X168944285Y-88712210D01*
X168925133Y-88645017D01*
X168945348Y-88578135D01*
X168996725Y-88533618D01*
X169054734Y-88506568D01*
X169241139Y-88376047D01*
X169402047Y-88215139D01*
X169532568Y-88028734D01*
X169628739Y-87822496D01*
X169687635Y-87602692D01*
X169704634Y-87408384D01*
X169707468Y-87376001D01*
X169707468Y-87375998D01*
X169687635Y-87149313D01*
X169687635Y-87149308D01*
X169628739Y-86929504D01*
X169532568Y-86723266D01*
X169402047Y-86536861D01*
X169402045Y-86536858D01*
X169241141Y-86375954D01*
X169054734Y-86245432D01*
X169054728Y-86245429D01*
X169027038Y-86232517D01*
X168996724Y-86218381D01*
X168944285Y-86172210D01*
X168925133Y-86105017D01*
X168945348Y-86038135D01*
X168996725Y-85993618D01*
X169054734Y-85966568D01*
X169241139Y-85836047D01*
X169402047Y-85675139D01*
X169532568Y-85488734D01*
X169628739Y-85282496D01*
X169687635Y-85062692D01*
X169707468Y-84836000D01*
X169707133Y-84832175D01*
X169698520Y-84733721D01*
X169687635Y-84609308D01*
X169628739Y-84389504D01*
X169532568Y-84183266D01*
X169402047Y-83996861D01*
X169402045Y-83996858D01*
X169241141Y-83835954D01*
X169054734Y-83705432D01*
X169054728Y-83705429D01*
X168996725Y-83678382D01*
X168944285Y-83632210D01*
X168925133Y-83565017D01*
X168945348Y-83498135D01*
X168996725Y-83453618D01*
X169054734Y-83426568D01*
X169241139Y-83296047D01*
X169402047Y-83135139D01*
X169532568Y-82948734D01*
X169628739Y-82742496D01*
X169687635Y-82522692D01*
X169707468Y-82296000D01*
X169706234Y-82281900D01*
X169687635Y-82069313D01*
X169687635Y-82069308D01*
X169628739Y-81849504D01*
X169532568Y-81643266D01*
X169434839Y-81503693D01*
X169402045Y-81456858D01*
X169241143Y-81295956D01*
X169216536Y-81278726D01*
X169172912Y-81224149D01*
X169165719Y-81154650D01*
X169197241Y-81092296D01*
X169257471Y-81056882D01*
X169274404Y-81053861D01*
X169309483Y-81050091D01*
X169444331Y-80999796D01*
X169559546Y-80913546D01*
X169645796Y-80798331D01*
X169696091Y-80663483D01*
X169702500Y-80603873D01*
X169702499Y-78908128D01*
X169696091Y-78848517D01*
X169691101Y-78835139D01*
X169645797Y-78713671D01*
X169645793Y-78713664D01*
X169559547Y-78598455D01*
X169559544Y-78598452D01*
X169444335Y-78512206D01*
X169444328Y-78512202D01*
X169309482Y-78461908D01*
X169309483Y-78461908D01*
X169249883Y-78455501D01*
X169249881Y-78455500D01*
X169249873Y-78455500D01*
X169249864Y-78455500D01*
X167554129Y-78455500D01*
X167554123Y-78455501D01*
X167494516Y-78461908D01*
X167359671Y-78512202D01*
X167359664Y-78512206D01*
X167244455Y-78598452D01*
X167244452Y-78598455D01*
X167158206Y-78713664D01*
X167158202Y-78713671D01*
X167107908Y-78848517D01*
X167101657Y-78906666D01*
X167101501Y-78908123D01*
X167101500Y-78908135D01*
X167101500Y-79031500D01*
X167081815Y-79098539D01*
X167029011Y-79144294D01*
X166977500Y-79155500D01*
X165762097Y-79155500D01*
X165695058Y-79135815D01*
X165674416Y-79119181D01*
X164993941Y-78438706D01*
X164960456Y-78377383D01*
X164961847Y-78318931D01*
X164987635Y-78222692D01*
X165006243Y-78009999D01*
X179997287Y-78009999D01*
X179997287Y-78010000D01*
X180016096Y-78212989D01*
X180016097Y-78212992D01*
X180071883Y-78409063D01*
X180071886Y-78409069D01*
X180162751Y-78591551D01*
X180164533Y-78593911D01*
X180748446Y-78010000D01*
X180708950Y-77970504D01*
X180802000Y-77970504D01*
X180802000Y-78049496D01*
X180822444Y-78125796D01*
X180861940Y-78194205D01*
X180917795Y-78250060D01*
X180986204Y-78289556D01*
X181062504Y-78310000D01*
X181141496Y-78310000D01*
X181217796Y-78289556D01*
X181286205Y-78250060D01*
X181342060Y-78194205D01*
X181381556Y-78125796D01*
X181402000Y-78049496D01*
X181402000Y-78010000D01*
X181455553Y-78010000D01*
X182039465Y-78593912D01*
X182041247Y-78591553D01*
X182041248Y-78591551D01*
X182132113Y-78409069D01*
X182132116Y-78409063D01*
X182187902Y-78212992D01*
X182187903Y-78212989D01*
X182206713Y-78010000D01*
X182206713Y-78009999D01*
X182187903Y-77807010D01*
X182187902Y-77807007D01*
X182132116Y-77610936D01*
X182132113Y-77610930D01*
X182041249Y-77428449D01*
X182041247Y-77428447D01*
X182039465Y-77426087D01*
X181455553Y-78010000D01*
X181402000Y-78010000D01*
X181402000Y-77970504D01*
X181381556Y-77894204D01*
X181342060Y-77825795D01*
X181286205Y-77769940D01*
X181217796Y-77730444D01*
X181141496Y-77710000D01*
X181062504Y-77710000D01*
X180986204Y-77730444D01*
X180917795Y-77769940D01*
X180861940Y-77825795D01*
X180822444Y-77894204D01*
X180802000Y-77970504D01*
X180708950Y-77970504D01*
X180164533Y-77426087D01*
X180162755Y-77428442D01*
X180162754Y-77428443D01*
X180071886Y-77610930D01*
X180071883Y-77610936D01*
X180016097Y-77807007D01*
X180016096Y-77807010D01*
X179997287Y-78009999D01*
X165006243Y-78009999D01*
X165007468Y-77996000D01*
X164987635Y-77769308D01*
X164928739Y-77549504D01*
X164832568Y-77343266D01*
X164702047Y-77156861D01*
X164702045Y-77156858D01*
X164620945Y-77075758D01*
X180521311Y-77075758D01*
X181102000Y-77656446D01*
X181102001Y-77656446D01*
X181682687Y-77075758D01*
X181594413Y-77021101D01*
X181594411Y-77021100D01*
X181404321Y-76947460D01*
X181203928Y-76910000D01*
X181000072Y-76910000D01*
X180799678Y-76947460D01*
X180609588Y-77021100D01*
X180609581Y-77021104D01*
X180521312Y-77075757D01*
X180521311Y-77075758D01*
X164620945Y-77075758D01*
X164541141Y-76995954D01*
X164354734Y-76865432D01*
X164354732Y-76865431D01*
X164148497Y-76769261D01*
X164148488Y-76769258D01*
X163928697Y-76710366D01*
X163928693Y-76710365D01*
X163928692Y-76710365D01*
X163928691Y-76710364D01*
X163928686Y-76710364D01*
X163702002Y-76690532D01*
X163701998Y-76690532D01*
X163475313Y-76710364D01*
X163475302Y-76710366D01*
X163255511Y-76769258D01*
X163255502Y-76769261D01*
X163049267Y-76865431D01*
X163049265Y-76865432D01*
X162862858Y-76995954D01*
X162701954Y-77156858D01*
X162571432Y-77343265D01*
X162571431Y-77343267D01*
X162475261Y-77549502D01*
X162475258Y-77549511D01*
X162416366Y-77769302D01*
X162416364Y-77769313D01*
X162396532Y-77995998D01*
X162396532Y-77996001D01*
X162416364Y-78222686D01*
X162416366Y-78222697D01*
X162475258Y-78442488D01*
X162475261Y-78442497D01*
X162571431Y-78648732D01*
X162571432Y-78648734D01*
X162701954Y-78835141D01*
X162862858Y-78996045D01*
X162862861Y-78996047D01*
X163049266Y-79126568D01*
X163255504Y-79222739D01*
X163475308Y-79281635D01*
X163637230Y-79295801D01*
X163701998Y-79301468D01*
X163702000Y-79301468D01*
X163702002Y-79301468D01*
X163758673Y-79296509D01*
X163928692Y-79281635D01*
X164024932Y-79255847D01*
X164094781Y-79257510D01*
X164144706Y-79287941D01*
X164977139Y-80120374D01*
X164977149Y-80120385D01*
X164981479Y-80124715D01*
X164981480Y-80124716D01*
X165093284Y-80236520D01*
X165116737Y-80250060D01*
X165180095Y-80286639D01*
X165180097Y-80286641D01*
X165218151Y-80308611D01*
X165230215Y-80315577D01*
X165382943Y-80356501D01*
X165382946Y-80356501D01*
X165548653Y-80356501D01*
X165548669Y-80356500D01*
X166977501Y-80356500D01*
X167044540Y-80376185D01*
X167090295Y-80428989D01*
X167101501Y-80480500D01*
X167101501Y-80603876D01*
X167107908Y-80663483D01*
X167158202Y-80798328D01*
X167158206Y-80798335D01*
X167244452Y-80913544D01*
X167244455Y-80913547D01*
X167359664Y-80999793D01*
X167359671Y-80999797D01*
X167404618Y-81016561D01*
X167494517Y-81050091D01*
X167529596Y-81053862D01*
X167594144Y-81080599D01*
X167633993Y-81137991D01*
X167636488Y-81207816D01*
X167600836Y-81267905D01*
X167587464Y-81278725D01*
X167562858Y-81295954D01*
X167401954Y-81456858D01*
X167271432Y-81643265D01*
X167271431Y-81643267D01*
X167175261Y-81849502D01*
X167175258Y-81849511D01*
X167116366Y-82069302D01*
X167116364Y-82069313D01*
X167096532Y-82295998D01*
X167096532Y-82296001D01*
X167116364Y-82522686D01*
X167116366Y-82522697D01*
X167175258Y-82742488D01*
X167175261Y-82742497D01*
X167271431Y-82948732D01*
X167271432Y-82948734D01*
X167401954Y-83135141D01*
X167562858Y-83296045D01*
X167562861Y-83296047D01*
X167749266Y-83426568D01*
X167773720Y-83437971D01*
X167807275Y-83453618D01*
X167859714Y-83499791D01*
X167878866Y-83566984D01*
X167858650Y-83633865D01*
X167807275Y-83678382D01*
X167749267Y-83705431D01*
X167749265Y-83705432D01*
X167562858Y-83835954D01*
X167401954Y-83996858D01*
X167271432Y-84183265D01*
X167271431Y-84183267D01*
X167175261Y-84389502D01*
X167175258Y-84389511D01*
X167116366Y-84609302D01*
X167116364Y-84609313D01*
X167096532Y-84835998D01*
X167096532Y-84836001D01*
X167116364Y-85062686D01*
X167116366Y-85062697D01*
X167175258Y-85282488D01*
X167175261Y-85282497D01*
X167271431Y-85488732D01*
X167271432Y-85488734D01*
X167401954Y-85675141D01*
X167562858Y-85836045D01*
X167572351Y-85842692D01*
X167749266Y-85966568D01*
X167807275Y-85993618D01*
X167859714Y-86039791D01*
X167878866Y-86106984D01*
X167858650Y-86173865D01*
X167807275Y-86218382D01*
X167749267Y-86245431D01*
X167749265Y-86245432D01*
X167562858Y-86375954D01*
X167401954Y-86536858D01*
X167271432Y-86723265D01*
X167271431Y-86723267D01*
X167175261Y-86929502D01*
X167175258Y-86929511D01*
X167116366Y-87149302D01*
X167116364Y-87149313D01*
X167096532Y-87375998D01*
X167096532Y-87376001D01*
X167116364Y-87602686D01*
X167116366Y-87602697D01*
X167142152Y-87698931D01*
X167140489Y-87768781D01*
X167110058Y-87818705D01*
X165509584Y-89419181D01*
X165448261Y-89452666D01*
X165421903Y-89455500D01*
X164334422Y-89455500D01*
X164267383Y-89435815D01*
X164235469Y-89406228D01*
X164145482Y-89287065D01*
X164145479Y-89287062D01*
X164145476Y-89287059D01*
X163989829Y-89145169D01*
X163989828Y-89145168D01*
X163810752Y-89034288D01*
X163810751Y-89034287D01*
X163667144Y-88978654D01*
X163614350Y-88958202D01*
X163407312Y-88919500D01*
X163196688Y-88919500D01*
X162989650Y-88958202D01*
X162989647Y-88958202D01*
X162989647Y-88958203D01*
X162793248Y-89034287D01*
X162793247Y-89034288D01*
X162614170Y-89145169D01*
X162458523Y-89287059D01*
X162458520Y-89287062D01*
X162331590Y-89455144D01*
X162331585Y-89455152D01*
X162237706Y-89643688D01*
X162237703Y-89643694D01*
X162180065Y-89846272D01*
X162180064Y-89846274D01*
X162160631Y-90055999D01*
X162160631Y-90056000D01*
X162180034Y-90265397D01*
X162166619Y-90333967D01*
X162144244Y-90364519D01*
X160433286Y-92075478D01*
X160321481Y-92187282D01*
X160321477Y-92187287D01*
X160301454Y-92221970D01*
X160297218Y-92229308D01*
X160242423Y-92324215D01*
X160201499Y-92476943D01*
X160201499Y-92476945D01*
X160201499Y-92645046D01*
X160201500Y-92645059D01*
X160201500Y-100313330D01*
X160201499Y-100313348D01*
X160201499Y-100479054D01*
X160201498Y-100479054D01*
X149598500Y-100479054D01*
X149598500Y-98701059D01*
X149598501Y-98701046D01*
X149598501Y-98532945D01*
X149598501Y-98532943D01*
X149557577Y-98380215D01*
X149520489Y-98315977D01*
X149518850Y-98313138D01*
X149518849Y-98313137D01*
X149478521Y-98243286D01*
X149478520Y-98243284D01*
X149366716Y-98131480D01*
X149366715Y-98131479D01*
X149362385Y-98127149D01*
X149362374Y-98127139D01*
X149219755Y-97984520D01*
X149186270Y-97923197D01*
X149183965Y-97885397D01*
X149184464Y-97880020D01*
X149203369Y-97676000D01*
X149202690Y-97668677D01*
X149183935Y-97466274D01*
X149183934Y-97466272D01*
X149148862Y-97343007D01*
X149126295Y-97263690D01*
X149039649Y-97089682D01*
X149032414Y-97075152D01*
X149032409Y-97075144D01*
X148983893Y-97010898D01*
X148905482Y-96907065D01*
X148905479Y-96907062D01*
X148905476Y-96907059D01*
X148749829Y-96765169D01*
X148749828Y-96765168D01*
X148570752Y-96654288D01*
X148570751Y-96654287D01*
X148397499Y-96587170D01*
X148374350Y-96578202D01*
X148167312Y-96539500D01*
X147956688Y-96539500D01*
X147873283Y-96555090D01*
X147803770Y-96548060D01*
X147749091Y-96504562D01*
X147726609Y-96438408D01*
X147726500Y-96433202D01*
X147726500Y-96378797D01*
X147746185Y-96311758D01*
X147798989Y-96266003D01*
X147868147Y-96256059D01*
X147873262Y-96256905D01*
X147956688Y-96272500D01*
X147956689Y-96272500D01*
X148167310Y-96272500D01*
X148167312Y-96272500D01*
X148374350Y-96233798D01*
X148570752Y-96157712D01*
X148749828Y-96046832D01*
X148905482Y-95904935D01*
X149032411Y-95736853D01*
X149126295Y-95548310D01*
X149183935Y-95345726D01*
X149203369Y-95136000D01*
X149183935Y-94926274D01*
X149126295Y-94723690D01*
X149039649Y-94549682D01*
X149032414Y-94535152D01*
X149032409Y-94535144D01*
X148998711Y-94490521D01*
X148905482Y-94367065D01*
X148905479Y-94367062D01*
X148905476Y-94367059D01*
X148764032Y-94238116D01*
X148727750Y-94178405D01*
X148729511Y-94108557D01*
X148768754Y-94050750D01*
X148785562Y-94039097D01*
X148800420Y-94030520D01*
X148912224Y-93918716D01*
X148912224Y-93918714D01*
X148922432Y-93908507D01*
X148922434Y-93908504D01*
X149356506Y-93474432D01*
X149356511Y-93474428D01*
X149366714Y-93464224D01*
X149366716Y-93464224D01*
X149478520Y-93352420D01*
X149557577Y-93215488D01*
X149590188Y-93093782D01*
X149598500Y-93062762D01*
X149598500Y-92904647D01*
X149598500Y-91081059D01*
X149598501Y-91081046D01*
X149598501Y-90912945D01*
X149598501Y-90912943D01*
X149557577Y-90760215D01*
X149541208Y-90731865D01*
X149518850Y-90693138D01*
X149518849Y-90693137D01*
X149478521Y-90623286D01*
X149478520Y-90623284D01*
X149366716Y-90511480D01*
X149366715Y-90511479D01*
X149362385Y-90507149D01*
X149362374Y-90507139D01*
X149219755Y-90364520D01*
X149186270Y-90303197D01*
X149183965Y-90265397D01*
X149186418Y-90238931D01*
X149203369Y-90056000D01*
X149183935Y-89846274D01*
X149126295Y-89643690D01*
X149064046Y-89518679D01*
X149032414Y-89455152D01*
X149032409Y-89455144D01*
X148998711Y-89410521D01*
X148905482Y-89287065D01*
X148905479Y-89287062D01*
X148905476Y-89287059D01*
X148749829Y-89145169D01*
X148749828Y-89145168D01*
X148570752Y-89034288D01*
X148570751Y-89034287D01*
X148427144Y-88978654D01*
X148374350Y-88958202D01*
X148167312Y-88919500D01*
X147956688Y-88919500D01*
X147749650Y-88958202D01*
X147749647Y-88958202D01*
X147749647Y-88958203D01*
X147553248Y-89034287D01*
X147553247Y-89034288D01*
X147374170Y-89145169D01*
X147218523Y-89287059D01*
X147218520Y-89287062D01*
X147091590Y-89455144D01*
X147091585Y-89455152D01*
X146997706Y-89643688D01*
X146997703Y-89643694D01*
X146940065Y-89846272D01*
X146940064Y-89846274D01*
X146920631Y-90055999D01*
X146920631Y-90056000D01*
X146940064Y-90265725D01*
X146940065Y-90265727D01*
X146997703Y-90468305D01*
X146997704Y-90468307D01*
X146997705Y-90468310D01*
X147017040Y-90507139D01*
X147091585Y-90656847D01*
X147091590Y-90656855D01*
X147128531Y-90705773D01*
X147218518Y-90824935D01*
X147374172Y-90966832D01*
X147553248Y-91077712D01*
X147749650Y-91153798D01*
X147956688Y-91192500D01*
X147956690Y-91192500D01*
X148167311Y-91192500D01*
X148167312Y-91192500D01*
X148250714Y-91176909D01*
X148320229Y-91183939D01*
X148374908Y-91227436D01*
X148397391Y-91293589D01*
X148397500Y-91298797D01*
X148397500Y-91353202D01*
X148377815Y-91420241D01*
X148325011Y-91465996D01*
X148255853Y-91475940D01*
X148250729Y-91475093D01*
X148167312Y-91459500D01*
X147956688Y-91459500D01*
X147749650Y-91498202D01*
X147749647Y-91498202D01*
X147749647Y-91498203D01*
X147553248Y-91574287D01*
X147553247Y-91574288D01*
X147374170Y-91685169D01*
X147218523Y-91827059D01*
X147218520Y-91827062D01*
X147091590Y-91995144D01*
X147091585Y-91995152D01*
X146997706Y-92183688D01*
X146997703Y-92183694D01*
X146940065Y-92386272D01*
X146940064Y-92386274D01*
X146920631Y-92595999D01*
X146920631Y-92596000D01*
X146940034Y-92805397D01*
X146926619Y-92873967D01*
X146904244Y-92904519D01*
X146357286Y-93451478D01*
X146245481Y-93563282D01*
X146245479Y-93563284D01*
X146228920Y-93591967D01*
X146206096Y-93631500D01*
X146189604Y-93660065D01*
X146168096Y-93697318D01*
X146166423Y-93700215D01*
X146125499Y-93852943D01*
X146125499Y-93852945D01*
X146125499Y-94021046D01*
X146125500Y-94021059D01*
X146125500Y-104017330D01*
X146125499Y-104017348D01*
X146125499Y-104183054D01*
X146125498Y-104183054D01*
X136798500Y-104183054D01*
X136798500Y-90843473D01*
X137823749Y-90843473D01*
X137857624Y-91013768D01*
X137857627Y-91013778D01*
X137924072Y-91174193D01*
X138020545Y-91318576D01*
X138020546Y-91318577D01*
X139229915Y-92527944D01*
X139263400Y-92589267D01*
X139265705Y-92604184D01*
X139273177Y-92684827D01*
X139332055Y-92891759D01*
X139332060Y-92891772D01*
X139427951Y-93084346D01*
X139427953Y-93084349D01*
X139427955Y-93084353D01*
X139427958Y-93084357D01*
X139427960Y-93084360D01*
X139459888Y-93126639D01*
X139557609Y-93256044D01*
X139557612Y-93256046D01*
X139557614Y-93256049D01*
X139716602Y-93400985D01*
X139716604Y-93400986D01*
X139716605Y-93400987D01*
X139899526Y-93514247D01*
X140100144Y-93591967D01*
X140311627Y-93631500D01*
X140311629Y-93631500D01*
X140526771Y-93631500D01*
X140526773Y-93631500D01*
X140738256Y-93591967D01*
X140938874Y-93514247D01*
X141121795Y-93400987D01*
X141280791Y-93256044D01*
X141361821Y-93148741D01*
X141417926Y-93107109D01*
X141431004Y-93105242D01*
X142012801Y-92523446D01*
X142012801Y-92524104D01*
X142040496Y-92627465D01*
X142094000Y-92720136D01*
X142169665Y-92795801D01*
X142262336Y-92849305D01*
X142365697Y-92877000D01*
X142366354Y-92877000D01*
X141794637Y-93448714D01*
X141899746Y-93513795D01*
X141899752Y-93513797D01*
X142100284Y-93591483D01*
X142311676Y-93631000D01*
X142526726Y-93631000D01*
X142738117Y-93591483D01*
X142738118Y-93591483D01*
X142938649Y-93513797D01*
X142938650Y-93513797D01*
X143043763Y-93448714D01*
X142472049Y-92877000D01*
X142472705Y-92877000D01*
X142576066Y-92849305D01*
X142668737Y-92795801D01*
X142744402Y-92720136D01*
X142797906Y-92627465D01*
X142825601Y-92524104D01*
X142825601Y-92523447D01*
X143399789Y-93097635D01*
X143410017Y-93084091D01*
X143505875Y-92891584D01*
X143564729Y-92684731D01*
X143584571Y-92470600D01*
X143564729Y-92256468D01*
X143505875Y-92049615D01*
X143410022Y-91857117D01*
X143410014Y-91857104D01*
X143399788Y-91843563D01*
X142825601Y-92417751D01*
X142825601Y-92417096D01*
X142797906Y-92313735D01*
X142744402Y-92221064D01*
X142668737Y-92145399D01*
X142576066Y-92091895D01*
X142472705Y-92064200D01*
X142472049Y-92064200D01*
X143043763Y-91492484D01*
X142938648Y-91427401D01*
X142738117Y-91349716D01*
X142526726Y-91310200D01*
X142311676Y-91310200D01*
X142100284Y-91349716D01*
X142100283Y-91349716D01*
X141899752Y-91427402D01*
X141899749Y-91427403D01*
X141794637Y-91492484D01*
X142366354Y-92064200D01*
X142365697Y-92064200D01*
X142262336Y-92091895D01*
X142169665Y-92145399D01*
X142094000Y-92221064D01*
X142040496Y-92313735D01*
X142012801Y-92417096D01*
X142012801Y-92417753D01*
X141427216Y-91832168D01*
X141401115Y-91826433D01*
X141361817Y-91792453D01*
X141280791Y-91685156D01*
X141280788Y-91685153D01*
X141280785Y-91685150D01*
X141121797Y-91540214D01*
X141068429Y-91507170D01*
X140938874Y-91426953D01*
X140738256Y-91349233D01*
X140574261Y-91318577D01*
X140537650Y-91311733D01*
X140475369Y-91280064D01*
X140472754Y-91277525D01*
X139623069Y-90427839D01*
X139589584Y-90366516D01*
X139586750Y-90340158D01*
X139586750Y-88904070D01*
X139606435Y-88837031D01*
X139659239Y-88791276D01*
X139728397Y-88781332D01*
X139758201Y-88789508D01*
X139823413Y-88816520D01*
X140053576Y-88871777D01*
X140289550Y-88890349D01*
X140525524Y-88871777D01*
X140755687Y-88816520D01*
X140974372Y-88725938D01*
X141176195Y-88602261D01*
X141356185Y-88448534D01*
X141509912Y-88268544D01*
X141633589Y-88066721D01*
X141724171Y-87848036D01*
X141779428Y-87617873D01*
X141798000Y-87381899D01*
X141779428Y-87145925D01*
X141724171Y-86915762D01*
X141702731Y-86864000D01*
X141633589Y-86697076D01*
X141509915Y-86495258D01*
X141509914Y-86495257D01*
X141509913Y-86495256D01*
X141509912Y-86495254D01*
X141356185Y-86315264D01*
X141206511Y-86187429D01*
X141168319Y-86128924D01*
X141167821Y-86059056D01*
X141188086Y-86018420D01*
X141280795Y-85895654D01*
X141376694Y-85703063D01*
X141435572Y-85496130D01*
X141455423Y-85281901D01*
X141447165Y-85192792D01*
X141460579Y-85124226D01*
X141482949Y-85093679D01*
X145232320Y-81344307D01*
X145293641Y-81310824D01*
X145363333Y-81315808D01*
X145407677Y-81344307D01*
X147172703Y-83109332D01*
X148978597Y-84915226D01*
X149003298Y-84950502D01*
X149052905Y-85056884D01*
X149052906Y-85056886D01*
X149052907Y-85056887D01*
X149178341Y-85236025D01*
X149332975Y-85390659D01*
X149512113Y-85516093D01*
X149710310Y-85608514D01*
X149710316Y-85608515D01*
X149710317Y-85608516D01*
X149738241Y-85615998D01*
X149921546Y-85665114D01*
X150084811Y-85679398D01*
X150139399Y-85684174D01*
X150139400Y-85684174D01*
X150139401Y-85684174D01*
X150193966Y-85679400D01*
X150357254Y-85665114D01*
X150568490Y-85608514D01*
X150766687Y-85516093D01*
X150945825Y-85390659D01*
X151100459Y-85236025D01*
X151225893Y-85056887D01*
X151297295Y-84903764D01*
X151343466Y-84851327D01*
X151410660Y-84832175D01*
X151477541Y-84852391D01*
X151522058Y-84903766D01*
X151593341Y-85056634D01*
X151593342Y-85056636D01*
X151636777Y-85118667D01*
X151636778Y-85118668D01*
X152200274Y-84555171D01*
X152217854Y-84620779D01*
X152283061Y-84733721D01*
X152375279Y-84825939D01*
X152488221Y-84891146D01*
X152553827Y-84908725D01*
X151990330Y-85472221D01*
X152052364Y-85515657D01*
X152250480Y-85608040D01*
X152250489Y-85608044D01*
X152461628Y-85664618D01*
X152461638Y-85664620D01*
X152679398Y-85683672D01*
X152679402Y-85683672D01*
X152897161Y-85664620D01*
X152897171Y-85664618D01*
X153108310Y-85608044D01*
X153108319Y-85608040D01*
X153306435Y-85515658D01*
X153306439Y-85515656D01*
X153368468Y-85472222D01*
X153368468Y-85472221D01*
X152804972Y-84908725D01*
X152870579Y-84891146D01*
X152983521Y-84825939D01*
X153075739Y-84733721D01*
X153140946Y-84620779D01*
X153158525Y-84555172D01*
X153722021Y-85118667D01*
X153744025Y-85087244D01*
X153798602Y-85043619D01*
X153868100Y-85036425D01*
X153930455Y-85067948D01*
X153965869Y-85128177D01*
X153969600Y-85158365D01*
X153969600Y-85226769D01*
X153969601Y-85226776D01*
X153976008Y-85286383D01*
X154026302Y-85421228D01*
X154026306Y-85421235D01*
X154112552Y-85536444D01*
X154112555Y-85536447D01*
X154227764Y-85622693D01*
X154227771Y-85622697D01*
X154362617Y-85672991D01*
X154362616Y-85672991D01*
X154369544Y-85673735D01*
X154422227Y-85679400D01*
X156016572Y-85679399D01*
X156076183Y-85672991D01*
X156211031Y-85622696D01*
X156326246Y-85536446D01*
X156412496Y-85421231D01*
X156462791Y-85286383D01*
X156469200Y-85226773D01*
X156469199Y-83632428D01*
X156462791Y-83572817D01*
X156460615Y-83566984D01*
X156412497Y-83437971D01*
X156412495Y-83437968D01*
X156412492Y-83437964D01*
X156326260Y-83322773D01*
X156301843Y-83257310D01*
X156316694Y-83189037D01*
X156337842Y-83160786D01*
X158081322Y-81417307D01*
X158142641Y-81383825D01*
X158212333Y-81388809D01*
X158256680Y-81417310D01*
X162360378Y-85521008D01*
X162393863Y-85582331D01*
X162395667Y-85610587D01*
X162396532Y-85610587D01*
X162396532Y-85616001D01*
X162416364Y-85842686D01*
X162416366Y-85842697D01*
X162475258Y-86062488D01*
X162475261Y-86062497D01*
X162571431Y-86268732D01*
X162571432Y-86268734D01*
X162701954Y-86455141D01*
X162862858Y-86616045D01*
X162862861Y-86616047D01*
X163049266Y-86746568D01*
X163255504Y-86842739D01*
X163475308Y-86901635D01*
X163636780Y-86915762D01*
X163701998Y-86921468D01*
X163702000Y-86921468D01*
X163702002Y-86921468D01*
X163767220Y-86915762D01*
X163928692Y-86901635D01*
X164148496Y-86842739D01*
X164354734Y-86746568D01*
X164541139Y-86616047D01*
X164702047Y-86455139D01*
X164832568Y-86268734D01*
X164928739Y-86062496D01*
X164987635Y-85842692D01*
X165006882Y-85622696D01*
X165007468Y-85616001D01*
X165007468Y-85615998D01*
X164996981Y-85496130D01*
X164987635Y-85389308D01*
X164928739Y-85169504D01*
X164832568Y-84963266D01*
X164702047Y-84776861D01*
X164702045Y-84776858D01*
X164541141Y-84615954D01*
X164354734Y-84485432D01*
X164354732Y-84485431D01*
X164148497Y-84389261D01*
X164148488Y-84389258D01*
X163928697Y-84330366D01*
X163928693Y-84330365D01*
X163928692Y-84330365D01*
X163928691Y-84330364D01*
X163928686Y-84330364D01*
X163702002Y-84310532D01*
X163696587Y-84310532D01*
X163696587Y-84308449D01*
X163636936Y-84296427D01*
X163607008Y-84274378D01*
X160578588Y-81245958D01*
X160545103Y-81184635D01*
X160550087Y-81114943D01*
X160591959Y-81059010D01*
X160621476Y-81042650D01*
X160734409Y-80998900D01*
X160734416Y-80998897D01*
X160822686Y-80944241D01*
X160822686Y-80944240D01*
X160242000Y-80363553D01*
X160183301Y-80304854D01*
X160202504Y-80310000D01*
X160281496Y-80310000D01*
X160357796Y-80289556D01*
X160426205Y-80250060D01*
X160482060Y-80194205D01*
X160521556Y-80125796D01*
X160542000Y-80049496D01*
X160542000Y-80010000D01*
X160595553Y-80010000D01*
X161179465Y-80593912D01*
X161181247Y-80591553D01*
X161181248Y-80591551D01*
X161272113Y-80409069D01*
X161272116Y-80409063D01*
X161327902Y-80212992D01*
X161327903Y-80212989D01*
X161346713Y-80010000D01*
X161346713Y-80009999D01*
X161327903Y-79807010D01*
X161327902Y-79807007D01*
X161272116Y-79610936D01*
X161272113Y-79610930D01*
X161181249Y-79428449D01*
X161181247Y-79428447D01*
X161179465Y-79426087D01*
X160595553Y-80010000D01*
X160542000Y-80010000D01*
X160542000Y-79970504D01*
X160521556Y-79894204D01*
X160482060Y-79825795D01*
X160426205Y-79769940D01*
X160357796Y-79730444D01*
X160281496Y-79710000D01*
X160202504Y-79710000D01*
X160126204Y-79730444D01*
X160057795Y-79769940D01*
X160001940Y-79825795D01*
X159962444Y-79894204D01*
X159942000Y-79970504D01*
X159942000Y-80049496D01*
X159947145Y-80068698D01*
X159378818Y-79500371D01*
X159345333Y-79439048D01*
X159342499Y-79412690D01*
X159342499Y-79362129D01*
X159342498Y-79362123D01*
X159342497Y-79362116D01*
X159336091Y-79302517D01*
X159328302Y-79281634D01*
X159285797Y-79167671D01*
X159285793Y-79167664D01*
X159216992Y-79075758D01*
X159661311Y-79075758D01*
X160242000Y-79656446D01*
X160242001Y-79656446D01*
X160822687Y-79075758D01*
X160734413Y-79021101D01*
X160734411Y-79021100D01*
X160544321Y-78947460D01*
X160343928Y-78910000D01*
X160140072Y-78910000D01*
X159939678Y-78947460D01*
X159749588Y-79021100D01*
X159749581Y-79021104D01*
X159661312Y-79075757D01*
X159661311Y-79075758D01*
X159216992Y-79075758D01*
X159199547Y-79052455D01*
X159199544Y-79052452D01*
X159084335Y-78966206D01*
X159084328Y-78966202D01*
X158949482Y-78915908D01*
X158949483Y-78915908D01*
X158889883Y-78909501D01*
X158889881Y-78909500D01*
X158889873Y-78909500D01*
X158889864Y-78909500D01*
X157594129Y-78909500D01*
X157594123Y-78909501D01*
X157534516Y-78915908D01*
X157399671Y-78966202D01*
X157399664Y-78966206D01*
X157284455Y-79052452D01*
X157284452Y-79052455D01*
X157198206Y-79167664D01*
X157198202Y-79167671D01*
X157147908Y-79302517D01*
X157141501Y-79362116D01*
X157141501Y-79362123D01*
X157141500Y-79362135D01*
X157141500Y-79812507D01*
X157121815Y-79879546D01*
X157105181Y-79900188D01*
X154534696Y-82470672D01*
X154534695Y-82470673D01*
X154438222Y-82615056D01*
X154371777Y-82775471D01*
X154371774Y-82775481D01*
X154340287Y-82933775D01*
X154340288Y-82933776D01*
X154337900Y-82945782D01*
X154337900Y-83109332D01*
X154318215Y-83176371D01*
X154265411Y-83222126D01*
X154257236Y-83225513D01*
X154227765Y-83236505D01*
X154112555Y-83322752D01*
X154112552Y-83322755D01*
X154026306Y-83437964D01*
X154026302Y-83437971D01*
X153976008Y-83572817D01*
X153969623Y-83632210D01*
X153969601Y-83632423D01*
X153969600Y-83632435D01*
X153969600Y-83700831D01*
X153949915Y-83767870D01*
X153897111Y-83813625D01*
X153827953Y-83823569D01*
X153764397Y-83794544D01*
X153744025Y-83771955D01*
X153722021Y-83740530D01*
X153158524Y-84304026D01*
X153140946Y-84238421D01*
X153075739Y-84125479D01*
X152983521Y-84033261D01*
X152870579Y-83968054D01*
X152804972Y-83950474D01*
X153368468Y-83386978D01*
X153368467Y-83386977D01*
X153306436Y-83343542D01*
X153306434Y-83343541D01*
X153108319Y-83251159D01*
X153108310Y-83251155D01*
X152897171Y-83194581D01*
X152897161Y-83194579D01*
X152679402Y-83175528D01*
X152679398Y-83175528D01*
X152461638Y-83194579D01*
X152461628Y-83194581D01*
X152250489Y-83251155D01*
X152250480Y-83251159D01*
X152052360Y-83343544D01*
X151990331Y-83386976D01*
X151990330Y-83386977D01*
X152553828Y-83950474D01*
X152488221Y-83968054D01*
X152375279Y-84033261D01*
X152283061Y-84125479D01*
X152217854Y-84238421D01*
X152200274Y-84304027D01*
X151636777Y-83740530D01*
X151636776Y-83740531D01*
X151593344Y-83802560D01*
X151522058Y-83955433D01*
X151475886Y-84007872D01*
X151408692Y-84027024D01*
X151341811Y-84006808D01*
X151297294Y-83955433D01*
X151225893Y-83802313D01*
X151204636Y-83771955D01*
X151100459Y-83623175D01*
X150945825Y-83468541D01*
X150802514Y-83368193D01*
X150766686Y-83343106D01*
X150665762Y-83296045D01*
X150568490Y-83250686D01*
X150568486Y-83250685D01*
X150568482Y-83250683D01*
X150357259Y-83194087D01*
X150357249Y-83194085D01*
X150139401Y-83175026D01*
X150139399Y-83175026D01*
X149921544Y-83194086D01*
X149921543Y-83194086D01*
X149855964Y-83211657D01*
X149786114Y-83209993D01*
X149736192Y-83179563D01*
X147761821Y-81205191D01*
X147728336Y-81143868D01*
X147733320Y-81074176D01*
X147775192Y-81018243D01*
X147804713Y-81001882D01*
X147812411Y-80998899D01*
X147812414Y-80998898D01*
X147900686Y-80944241D01*
X147900686Y-80944240D01*
X147320000Y-80363553D01*
X147261301Y-80304854D01*
X147280504Y-80310000D01*
X147359496Y-80310000D01*
X147435796Y-80289556D01*
X147504205Y-80250060D01*
X147560060Y-80194205D01*
X147599556Y-80125796D01*
X147620000Y-80049496D01*
X147620000Y-80010000D01*
X147673553Y-80010000D01*
X148257465Y-80593912D01*
X148259247Y-80591553D01*
X148259248Y-80591551D01*
X148350113Y-80409069D01*
X148350116Y-80409063D01*
X148405902Y-80212992D01*
X148405903Y-80212989D01*
X148424713Y-80010000D01*
X148424713Y-80009999D01*
X148405903Y-79807010D01*
X148405902Y-79807007D01*
X148350116Y-79610936D01*
X148350113Y-79610930D01*
X148259249Y-79428449D01*
X148259247Y-79428447D01*
X148257465Y-79426087D01*
X147673553Y-80010000D01*
X147620000Y-80010000D01*
X147620000Y-79970504D01*
X147599556Y-79894204D01*
X147560060Y-79825795D01*
X147504205Y-79769940D01*
X147435796Y-79730444D01*
X147359496Y-79710000D01*
X147280504Y-79710000D01*
X147204204Y-79730444D01*
X147135795Y-79769940D01*
X147079940Y-79825795D01*
X147040444Y-79894204D01*
X147020000Y-79970504D01*
X147020000Y-80049496D01*
X147025145Y-80068698D01*
X146456818Y-79500371D01*
X146423333Y-79439048D01*
X146420499Y-79412690D01*
X146420499Y-79362129D01*
X146420498Y-79362123D01*
X146420497Y-79362116D01*
X146414091Y-79302517D01*
X146406302Y-79281634D01*
X146363797Y-79167671D01*
X146363793Y-79167664D01*
X146294992Y-79075758D01*
X146739311Y-79075758D01*
X147320000Y-79656446D01*
X147320001Y-79656446D01*
X147900687Y-79075758D01*
X147812413Y-79021101D01*
X147812411Y-79021100D01*
X147622321Y-78947460D01*
X147421928Y-78910000D01*
X147218072Y-78910000D01*
X147017678Y-78947460D01*
X146827588Y-79021100D01*
X146827581Y-79021104D01*
X146739312Y-79075757D01*
X146739311Y-79075758D01*
X146294992Y-79075758D01*
X146277547Y-79052455D01*
X146277544Y-79052452D01*
X146162335Y-78966206D01*
X146162328Y-78966202D01*
X146027482Y-78915908D01*
X146027483Y-78915908D01*
X145967883Y-78909501D01*
X145967881Y-78909500D01*
X145967873Y-78909500D01*
X145967864Y-78909500D01*
X144672129Y-78909500D01*
X144672123Y-78909501D01*
X144612516Y-78915908D01*
X144477671Y-78966202D01*
X144477664Y-78966206D01*
X144362455Y-79052452D01*
X144362452Y-79052455D01*
X144276206Y-79167664D01*
X144276202Y-79167671D01*
X144225908Y-79302517D01*
X144219501Y-79362116D01*
X144219501Y-79362123D01*
X144219500Y-79362135D01*
X144219500Y-79812508D01*
X144199815Y-79879547D01*
X144183181Y-79900189D01*
X141439394Y-82643975D01*
X141378071Y-82677460D01*
X141308379Y-82672476D01*
X141252759Y-82631021D01*
X141240703Y-82615056D01*
X141151141Y-82496456D01*
X141016302Y-82373535D01*
X140980023Y-82313827D01*
X140981783Y-82243979D01*
X141016301Y-82190265D01*
X141151141Y-82067344D01*
X141280795Y-81895653D01*
X141376694Y-81703062D01*
X141435572Y-81496129D01*
X141455423Y-81281900D01*
X141435572Y-81067671D01*
X141376694Y-80860738D01*
X141372506Y-80852328D01*
X141280798Y-80668153D01*
X141280797Y-80668152D01*
X141280795Y-80668147D01*
X141273036Y-80657873D01*
X141188090Y-80545385D01*
X141163398Y-80480024D01*
X141177963Y-80411690D01*
X141206510Y-80376371D01*
X141356185Y-80248536D01*
X141509912Y-80068546D01*
X141633589Y-79866723D01*
X141724171Y-79648038D01*
X141779428Y-79417875D01*
X141798000Y-79181901D01*
X141779428Y-78945927D01*
X141724171Y-78715764D01*
X141696406Y-78648732D01*
X141633589Y-78497078D01*
X141509915Y-78295260D01*
X141509914Y-78295259D01*
X141509913Y-78295258D01*
X141509912Y-78295256D01*
X141356185Y-78115266D01*
X141176195Y-77961539D01*
X141176193Y-77961537D01*
X141176191Y-77961536D01*
X141176190Y-77961535D01*
X140974372Y-77837861D01*
X140755686Y-77747279D01*
X140525527Y-77692023D01*
X140289550Y-77673451D01*
X140053572Y-77692023D01*
X139823413Y-77747279D01*
X139604727Y-77837861D01*
X139402909Y-77961535D01*
X139402908Y-77961536D01*
X139222915Y-78115266D01*
X139069185Y-78295259D01*
X139069184Y-78295260D01*
X138945510Y-78497078D01*
X138854928Y-78715764D01*
X138799672Y-78945923D01*
X138781100Y-79181901D01*
X138799672Y-79417878D01*
X138854928Y-79648037D01*
X138945510Y-79866723D01*
X139069184Y-80068541D01*
X139069185Y-80068542D01*
X139069186Y-80068544D01*
X139069188Y-80068546D01*
X139222915Y-80248536D01*
X139372588Y-80376369D01*
X139410780Y-80434875D01*
X139411278Y-80504743D01*
X139391010Y-80545384D01*
X139298306Y-80668146D01*
X139298301Y-80668153D01*
X139202410Y-80860727D01*
X139202405Y-80860740D01*
X139143527Y-81067671D01*
X139123677Y-81281899D01*
X139123677Y-81281900D01*
X139143527Y-81496128D01*
X139202405Y-81703059D01*
X139202410Y-81703072D01*
X139298301Y-81895646D01*
X139298303Y-81895649D01*
X139298305Y-81895653D01*
X139427959Y-82067344D01*
X139562797Y-82190264D01*
X139599077Y-82249973D01*
X139597317Y-82319821D01*
X139562798Y-82373534D01*
X139456243Y-82470672D01*
X139427959Y-82496456D01*
X139427957Y-82496458D01*
X139298310Y-82668139D01*
X139298301Y-82668153D01*
X139202410Y-82860727D01*
X139202405Y-82860740D01*
X139143527Y-83067671D01*
X139136055Y-83148315D01*
X139110269Y-83213252D01*
X139100265Y-83224554D01*
X138020546Y-84304272D01*
X138020545Y-84304273D01*
X137924072Y-84448656D01*
X137857627Y-84609071D01*
X137857624Y-84609083D01*
X137827359Y-84761233D01*
X137827359Y-84761239D01*
X137823750Y-84779380D01*
X137823750Y-90669829D01*
X137823750Y-90843471D01*
X137823750Y-90843473D01*
X137823749Y-90843473D01*
X136798500Y-90843473D01*
X136798500Y-76282500D01*
X136818185Y-76215461D01*
X136870989Y-76169706D01*
X136922500Y-76158500D01*
X185657500Y-76158500D01*
X185724539Y-76178185D01*
G37*
%TD.AperFunction*%
%TD*%
M02*
