M48
; DRILL file {KiCad 8.0.4} date 2024-08-29T11:58:46-0500
; FORMAT={-:-/ absolute / inch / decimal}
; #@! TF.CreationDate,2024-08-29T11:58:46-05:00
; #@! TF.GenerationSoftware,Kicad,Pcbnew,8.0.4
; #@! TF.FileFunction,Plated,1,2,PTH
FMAT,2
INCH
; #@! TA.AperFunction,Plated,PTH,ComponentDrill
T1C0.0201
; #@! TA.AperFunction,Plated,PTH,ComponentDrill
T2C0.0217
; #@! TA.AperFunction,Plated,PTH,ComponentDrill
T3C0.0236
; #@! TA.AperFunction,Plated,PTH,ComponentDrill
T4C0.0315
; #@! TA.AperFunction,Plated,PTH,ComponentDrill
T5C0.0320
; #@! TA.AperFunction,Plated,PTH,ComponentDrill
T6C0.0390
; #@! TA.AperFunction,Plated,PTH,ComponentDrill
T7C0.0394
; #@! TA.AperFunction,Plated,PTH,ComponentDrill
T8C0.0590
%
G90
G05
T1
X5.8292Y-3.5455
X5.8292Y-3.6455
X5.8292Y-3.7455
X5.8292Y-3.8455
X5.8292Y-3.9455
X5.8292Y-4.0512
X5.8292Y-4.1512
X5.8292Y-4.2512
X5.8292Y-4.3512
X5.8292Y-4.4512
X6.4292Y-3.5455
X6.4292Y-3.6455
X6.4292Y-3.7455
X6.4292Y-3.8455
X6.4292Y-3.9455
X6.4292Y-4.0512
X6.4292Y-4.1512
X6.4292Y-4.2512
X6.4292Y-4.3512
X6.4292Y-4.4512
T2
X7.12Y-3.31
X7.12Y-3.36
X7.12Y-3.41
T3
X5.7213Y-3.15
X5.8Y-3.15
X6.23Y-3.15
X6.3087Y-3.15
X7.13Y-3.0713
X7.13Y-3.15
T4
X6.445Y-3.0707
X6.445Y-3.3707
X7.13Y-3.67
X7.13Y-3.8621
X7.13Y-4.1
X7.13Y-4.1984
X7.13Y-4.3408
X7.13Y-4.4392
T5
X5.5232Y-3.2001
X5.5232Y-3.2788
X5.5232Y-3.3576
X5.5283Y-3.6406
X5.6071Y-3.6406
T6
X5.911Y-3.324
X6.011Y-3.324
X6.111Y-3.324
T7
X6.63Y-3.14
X6.63Y-3.24
X6.63Y-3.34
X6.63Y-3.44
X6.63Y-3.54
X6.63Y-3.64
X6.63Y-3.74
X6.63Y-3.84
X6.63Y-3.94
X6.63Y-4.04
X6.63Y-4.14
X6.63Y-4.24
X6.63Y-4.34
X6.63Y-4.44
X6.93Y-3.14
X6.93Y-3.24
X6.93Y-3.34
X6.93Y-3.44
X6.93Y-3.54
X6.93Y-3.64
X6.93Y-3.74
X6.93Y-3.84
X6.93Y-3.94
X6.93Y-4.04
X6.93Y-4.14
X6.93Y-4.24
X6.93Y-4.34
X6.93Y-4.44
T8
X5.5232Y-3.1174
X5.5232Y-3.4402
M30
